<?xml version="1.0" encoding="utf-8" standalone="no"?>
<!DOCTYPE svg PUBLIC "-//W3C//DTD SVG 1.1//EN"
  "http://www.w3.org/Graphics/SVG/1.1/DTD/svg11.dtd">
<svg xmlns:xlink="http://www.w3.org/1999/xlink" width="532.95pt" height="388.64875pt" viewBox="0 0 532.95 388.64875" xmlns="http://www.w3.org/2000/svg" version="1.1">
 <metadata>
  <rdf:RDF xmlns:dc="http://purl.org/dc/elements/1.1/" xmlns:cc="http://creativecommons.org/ns#" xmlns:rdf="http://www.w3.org/1999/02/22-rdf-syntax-ns#">
   <cc:Work>
    <dc:type rdf:resource="http://purl.org/dc/dcmitype/StillImage"/>
    <dc:date>2024-01-04T23:40:29.596797</dc:date>
    <dc:format>image/svg+xml</dc:format>
    <dc:creator>
     <cc:Agent>
      <dc:title>Matplotlib v3.8.2, https://matplotlib.org/</dc:title>
     </cc:Agent>
    </dc:creator>
   </cc:Work>
  </rdf:RDF>
 </metadata>
 <defs>
  <style type="text/css">*{stroke-linejoin: round; stroke-linecap: butt}</style>
 </defs>
 <g id="figure_1">
  <g id="patch_1">
   <path d="M 0 388.64875 
L 532.95 388.64875 
L 532.95 0 
L 0 0 
z
" style="fill: #ffffff"/>
  </g>
  <g id="axes_1">
   <g id="patch_2">
    <path d="M 62.3 347.62875 
L 529.35 347.62875 
L 529.35 3.6 
L 62.3 3.6 
z
" style="fill: #ffffff"/>
   </g>
   <g id="matplotlib.axis_1">
    <g id="xtick_1">
     <g id="line2d_1">
      <defs>
       <path id="m0ff4b4f1c2" d="M 0 0 
L 0 -6 
" style="stroke: #000000"/>
      </defs>
      <g>
       <use xlink:href="#m0ff4b4f1c2" x="167.712795" y="347.62875" style="stroke: #000000"/>
      </g>
     </g>
     <g id="line2d_2">
      <defs>
       <path id="me40782beda" d="M 0 0 
L 0 6 
" style="stroke: #000000"/>
      </defs>
      <g>
       <use xlink:href="#me40782beda" x="167.712795" y="3.6" style="stroke: #000000"/>
      </g>
     </g>
     <g id="text_1">
      <!-- 10 -->
      <g transform="translate(159.712795 362.05625) scale(0.16 -0.16)">
       <defs>
        <path id="STIXGeneral-Regular-31" d="M 2522 0 
L 755 0 
L 755 96 
Q 1107 115 1235 227 
Q 1363 339 1363 608 
L 1363 3482 
Q 1363 3795 1171 3795 
Q 1082 3795 883 3718 
L 710 3654 
L 710 3744 
L 1856 4326 
L 1914 4307 
L 1914 486 
Q 1914 275 2042 185 
Q 2170 96 2522 96 
L 2522 0 
z
" transform="scale(0.015625)"/>
        <path id="STIXGeneral-Regular-30" d="M 3046 2112 
Q 3046 1683 2963 1302 
Q 2880 922 2717 602 
Q 2554 282 2266 96 
Q 1978 -90 1600 -90 
Q 1210 -90 915 108 
Q 621 307 461 640 
Q 301 973 227 1350 
Q 154 1728 154 2150 
Q 154 2746 301 3222 
Q 448 3699 790 4012 
Q 1133 4326 1626 4326 
Q 2253 4326 2649 3712 
Q 3046 3098 3046 2112 
z
M 2432 2080 
Q 2432 3091 2217 3625 
Q 2003 4160 1587 4160 
Q 1190 4160 979 3622 
Q 768 3085 768 2106 
Q 768 1120 979 598 
Q 1190 77 1600 77 
Q 2003 77 2217 598 
Q 2432 1120 2432 2080 
z
" transform="scale(0.015625)"/>
       </defs>
       <use xlink:href="#STIXGeneral-Regular-31"/>
       <use xlink:href="#STIXGeneral-Regular-30" x="49.999985"/>
      </g>
     </g>
    </g>
    <g id="xtick_2">
     <g id="line2d_3">
      <g>
       <use xlink:href="#m0ff4b4f1c2" x="318.52441" y="347.62875" style="stroke: #000000"/>
      </g>
     </g>
     <g id="line2d_4">
      <g>
       <use xlink:href="#me40782beda" x="318.52441" y="3.6" style="stroke: #000000"/>
      </g>
     </g>
     <g id="text_2">
      <!-- 100 -->
      <g transform="translate(306.52441 362.05625) scale(0.16 -0.16)">
       <use xlink:href="#STIXGeneral-Regular-31"/>
       <use xlink:href="#STIXGeneral-Regular-30" x="49.999985"/>
       <use xlink:href="#STIXGeneral-Regular-30" x="99.999969"/>
      </g>
     </g>
    </g>
    <g id="xtick_3">
     <g id="line2d_5">
      <g>
       <use xlink:href="#m0ff4b4f1c2" x="469.336025" y="347.62875" style="stroke: #000000"/>
      </g>
     </g>
     <g id="line2d_6">
      <g>
       <use xlink:href="#me40782beda" x="469.336025" y="3.6" style="stroke: #000000"/>
      </g>
     </g>
     <g id="text_3">
      <!-- 1000 -->
      <g transform="translate(453.336025 362.05625) scale(0.16 -0.16)">
       <use xlink:href="#STIXGeneral-Regular-31"/>
       <use xlink:href="#STIXGeneral-Regular-30" x="49.999985"/>
       <use xlink:href="#STIXGeneral-Regular-30" x="99.999969"/>
       <use xlink:href="#STIXGeneral-Regular-30" x="149.999954"/>
      </g>
     </g>
    </g>
    <g id="xtick_4">
     <g id="line2d_7">
      <defs>
       <path id="m847d3fa0a1" d="M 0 0 
L 0 -3 
" style="stroke: #000000"/>
      </defs>
      <g>
       <use xlink:href="#m847d3fa0a1" x="62.3" y="347.62875" style="stroke: #000000"/>
      </g>
     </g>
     <g id="line2d_8">
      <defs>
       <path id="mb5ad62786a" d="M 0 0 
L 0 3 
" style="stroke: #000000"/>
      </defs>
      <g>
       <use xlink:href="#mb5ad62786a" x="62.3" y="3.6" style="stroke: #000000"/>
      </g>
     </g>
    </g>
    <g id="xtick_5">
     <g id="line2d_9">
      <g>
       <use xlink:href="#m847d3fa0a1" x="88.856607" y="347.62875" style="stroke: #000000"/>
      </g>
     </g>
     <g id="line2d_10">
      <g>
       <use xlink:href="#mb5ad62786a" x="88.856607" y="3.6" style="stroke: #000000"/>
      </g>
     </g>
    </g>
    <g id="xtick_6">
     <g id="line2d_11">
      <g>
       <use xlink:href="#m847d3fa0a1" x="107.69882" y="347.62875" style="stroke: #000000"/>
      </g>
     </g>
     <g id="line2d_12">
      <g>
       <use xlink:href="#mb5ad62786a" x="107.69882" y="3.6" style="stroke: #000000"/>
      </g>
     </g>
    </g>
    <g id="xtick_7">
     <g id="line2d_13">
      <g>
       <use xlink:href="#m847d3fa0a1" x="122.313975" y="347.62875" style="stroke: #000000"/>
      </g>
     </g>
     <g id="line2d_14">
      <g>
       <use xlink:href="#mb5ad62786a" x="122.313975" y="3.6" style="stroke: #000000"/>
      </g>
     </g>
    </g>
    <g id="xtick_8">
     <g id="line2d_15">
      <g>
       <use xlink:href="#m847d3fa0a1" x="134.255427" y="347.62875" style="stroke: #000000"/>
      </g>
     </g>
     <g id="line2d_16">
      <g>
       <use xlink:href="#mb5ad62786a" x="134.255427" y="3.6" style="stroke: #000000"/>
      </g>
     </g>
    </g>
    <g id="xtick_9">
     <g id="line2d_17">
      <g>
       <use xlink:href="#m847d3fa0a1" x="144.35178" y="347.62875" style="stroke: #000000"/>
      </g>
     </g>
     <g id="line2d_18">
      <g>
       <use xlink:href="#mb5ad62786a" x="144.35178" y="3.6" style="stroke: #000000"/>
      </g>
     </g>
    </g>
    <g id="xtick_10">
     <g id="line2d_19">
      <g>
       <use xlink:href="#m847d3fa0a1" x="153.09764" y="347.62875" style="stroke: #000000"/>
      </g>
     </g>
     <g id="line2d_20">
      <g>
       <use xlink:href="#mb5ad62786a" x="153.09764" y="3.6" style="stroke: #000000"/>
      </g>
     </g>
    </g>
    <g id="xtick_11">
     <g id="line2d_21">
      <g>
       <use xlink:href="#m847d3fa0a1" x="160.812034" y="347.62875" style="stroke: #000000"/>
      </g>
     </g>
     <g id="line2d_22">
      <g>
       <use xlink:href="#mb5ad62786a" x="160.812034" y="3.6" style="stroke: #000000"/>
      </g>
     </g>
    </g>
    <g id="xtick_12">
     <g id="line2d_23">
      <g>
       <use xlink:href="#m847d3fa0a1" x="213.111615" y="347.62875" style="stroke: #000000"/>
      </g>
     </g>
     <g id="line2d_24">
      <g>
       <use xlink:href="#mb5ad62786a" x="213.111615" y="3.6" style="stroke: #000000"/>
      </g>
     </g>
    </g>
    <g id="xtick_13">
     <g id="line2d_25">
      <g>
       <use xlink:href="#m847d3fa0a1" x="239.668222" y="347.62875" style="stroke: #000000"/>
      </g>
     </g>
     <g id="line2d_26">
      <g>
       <use xlink:href="#mb5ad62786a" x="239.668222" y="3.6" style="stroke: #000000"/>
      </g>
     </g>
    </g>
    <g id="xtick_14">
     <g id="line2d_27">
      <g>
       <use xlink:href="#m847d3fa0a1" x="258.510435" y="347.62875" style="stroke: #000000"/>
      </g>
     </g>
     <g id="line2d_28">
      <g>
       <use xlink:href="#mb5ad62786a" x="258.510435" y="3.6" style="stroke: #000000"/>
      </g>
     </g>
    </g>
    <g id="xtick_15">
     <g id="line2d_29">
      <g>
       <use xlink:href="#m847d3fa0a1" x="273.12559" y="347.62875" style="stroke: #000000"/>
      </g>
     </g>
     <g id="line2d_30">
      <g>
       <use xlink:href="#mb5ad62786a" x="273.12559" y="3.6" style="stroke: #000000"/>
      </g>
     </g>
    </g>
    <g id="xtick_16">
     <g id="line2d_31">
      <g>
       <use xlink:href="#m847d3fa0a1" x="285.067042" y="347.62875" style="stroke: #000000"/>
      </g>
     </g>
     <g id="line2d_32">
      <g>
       <use xlink:href="#mb5ad62786a" x="285.067042" y="3.6" style="stroke: #000000"/>
      </g>
     </g>
    </g>
    <g id="xtick_17">
     <g id="line2d_33">
      <g>
       <use xlink:href="#m847d3fa0a1" x="295.163395" y="347.62875" style="stroke: #000000"/>
      </g>
     </g>
     <g id="line2d_34">
      <g>
       <use xlink:href="#mb5ad62786a" x="295.163395" y="3.6" style="stroke: #000000"/>
      </g>
     </g>
    </g>
    <g id="xtick_18">
     <g id="line2d_35">
      <g>
       <use xlink:href="#m847d3fa0a1" x="303.909254" y="347.62875" style="stroke: #000000"/>
      </g>
     </g>
     <g id="line2d_36">
      <g>
       <use xlink:href="#mb5ad62786a" x="303.909254" y="3.6" style="stroke: #000000"/>
      </g>
     </g>
    </g>
    <g id="xtick_19">
     <g id="line2d_37">
      <g>
       <use xlink:href="#m847d3fa0a1" x="311.623649" y="347.62875" style="stroke: #000000"/>
      </g>
     </g>
     <g id="line2d_38">
      <g>
       <use xlink:href="#mb5ad62786a" x="311.623649" y="3.6" style="stroke: #000000"/>
      </g>
     </g>
    </g>
    <g id="xtick_20">
     <g id="line2d_39">
      <g>
       <use xlink:href="#m847d3fa0a1" x="363.92323" y="347.62875" style="stroke: #000000"/>
      </g>
     </g>
     <g id="line2d_40">
      <g>
       <use xlink:href="#mb5ad62786a" x="363.92323" y="3.6" style="stroke: #000000"/>
      </g>
     </g>
    </g>
    <g id="xtick_21">
     <g id="line2d_41">
      <g>
       <use xlink:href="#m847d3fa0a1" x="390.479837" y="347.62875" style="stroke: #000000"/>
      </g>
     </g>
     <g id="line2d_42">
      <g>
       <use xlink:href="#mb5ad62786a" x="390.479837" y="3.6" style="stroke: #000000"/>
      </g>
     </g>
    </g>
    <g id="xtick_22">
     <g id="line2d_43">
      <g>
       <use xlink:href="#m847d3fa0a1" x="409.322049" y="347.62875" style="stroke: #000000"/>
      </g>
     </g>
     <g id="line2d_44">
      <g>
       <use xlink:href="#mb5ad62786a" x="409.322049" y="3.6" style="stroke: #000000"/>
      </g>
     </g>
    </g>
    <g id="xtick_23">
     <g id="line2d_45">
      <g>
       <use xlink:href="#m847d3fa0a1" x="423.937205" y="347.62875" style="stroke: #000000"/>
      </g>
     </g>
     <g id="line2d_46">
      <g>
       <use xlink:href="#mb5ad62786a" x="423.937205" y="3.6" style="stroke: #000000"/>
      </g>
     </g>
    </g>
    <g id="xtick_24">
     <g id="line2d_47">
      <g>
       <use xlink:href="#m847d3fa0a1" x="435.878657" y="347.62875" style="stroke: #000000"/>
      </g>
     </g>
     <g id="line2d_48">
      <g>
       <use xlink:href="#mb5ad62786a" x="435.878657" y="3.6" style="stroke: #000000"/>
      </g>
     </g>
    </g>
    <g id="xtick_25">
     <g id="line2d_49">
      <g>
       <use xlink:href="#m847d3fa0a1" x="445.97501" y="347.62875" style="stroke: #000000"/>
      </g>
     </g>
     <g id="line2d_50">
      <g>
       <use xlink:href="#mb5ad62786a" x="445.97501" y="3.6" style="stroke: #000000"/>
      </g>
     </g>
    </g>
    <g id="xtick_26">
     <g id="line2d_51">
      <g>
       <use xlink:href="#m847d3fa0a1" x="454.720869" y="347.62875" style="stroke: #000000"/>
      </g>
     </g>
     <g id="line2d_52">
      <g>
       <use xlink:href="#mb5ad62786a" x="454.720869" y="3.6" style="stroke: #000000"/>
      </g>
     </g>
    </g>
    <g id="xtick_27">
     <g id="line2d_53">
      <g>
       <use xlink:href="#m847d3fa0a1" x="462.435264" y="347.62875" style="stroke: #000000"/>
      </g>
     </g>
     <g id="line2d_54">
      <g>
       <use xlink:href="#mb5ad62786a" x="462.435264" y="3.6" style="stroke: #000000"/>
      </g>
     </g>
    </g>
    <g id="xtick_28">
     <g id="line2d_55">
      <g>
       <use xlink:href="#m847d3fa0a1" x="514.734844" y="347.62875" style="stroke: #000000"/>
      </g>
     </g>
     <g id="line2d_56">
      <g>
       <use xlink:href="#mb5ad62786a" x="514.734844" y="3.6" style="stroke: #000000"/>
      </g>
     </g>
    </g>
    <g id="text_4">
     <!-- multipole moment $\ell$ -->
     <g transform="translate(231.585 381.52875) scale(0.16 -0.16)">
      <defs>
       <path id="STIXGeneral-Regular-6d" d="M 4960 0 
L 3565 0 
L 3565 96 
Q 3834 122 3907 208 
Q 3981 294 3981 576 
L 3981 1894 
Q 3981 2278 3869 2444 
Q 3757 2611 3488 2611 
Q 3264 2611 3107 2521 
Q 2950 2432 2803 2221 
L 2803 608 
Q 2803 301 2896 201 
Q 2989 102 3264 96 
L 3264 0 
L 1830 0 
L 1830 96 
Q 2112 115 2189 188 
Q 2266 262 2266 550 
L 2266 1901 
Q 2266 2611 1850 2611 
Q 1670 2611 1468 2531 
Q 1267 2451 1171 2336 
Q 1088 2240 1088 2227 
L 1088 448 
Q 1088 243 1177 176 
Q 1267 109 1523 96 
L 1523 0 
L 102 0 
L 102 96 
Q 371 102 460 195 
Q 550 288 550 563 
L 550 2150 
Q 550 2387 499 2480 
Q 448 2573 326 2573 
Q 230 2573 122 2547 
L 122 2656 
Q 557 2778 1011 2944 
L 1062 2925 
L 1062 2451 
L 1075 2451 
Q 1363 2752 1584 2848 
Q 1805 2944 2054 2944 
Q 2560 2944 2733 2406 
Q 3232 2944 3776 2944 
Q 4518 2944 4518 1792 
L 4518 493 
Q 4518 282 4582 202 
Q 4646 122 4794 109 
L 4960 96 
L 4960 0 
z
" transform="scale(0.015625)"/>
       <path id="STIXGeneral-Regular-75" d="M 3072 320 
L 3072 230 
Q 2573 96 2195 -58 
L 2163 -38 
L 2163 486 
L 2150 486 
Q 1747 -64 1235 -64 
Q 870 -64 662 160 
Q 454 384 454 755 
L 454 2362 
Q 454 2598 371 2688 
Q 288 2778 58 2790 
L 58 2880 
L 992 2880 
L 992 813 
Q 992 595 1123 451 
Q 1254 307 1446 307 
Q 1760 307 1984 506 
Q 2067 582 2099 649 
Q 2131 717 2131 877 
L 2131 2355 
Q 2131 2605 2041 2678 
Q 1952 2752 1658 2771 
L 1658 2880 
L 2669 2880 
L 2669 685 
Q 2669 461 2742 390 
Q 2816 320 3034 320 
L 3072 320 
z
" transform="scale(0.015625)"/>
       <path id="STIXGeneral-Regular-6c" d="M 1645 0 
L 134 0 
L 134 96 
Q 435 122 531 221 
Q 627 320 627 589 
L 627 3590 
Q 627 3821 569 3910 
Q 512 4000 358 4000 
Q 224 4000 122 3987 
L 122 4090 
Q 730 4237 1133 4371 
L 1165 4346 
L 1165 557 
Q 1165 288 1254 201 
Q 1344 115 1645 96 
L 1645 0 
z
" transform="scale(0.015625)"/>
       <path id="STIXGeneral-Regular-74" d="M 1702 493 
L 1786 422 
Q 1478 -64 1011 -64 
Q 448 -64 448 749 
L 448 2675 
L 109 2675 
Q 83 2694 83 2720 
Q 83 2771 192 2842 
Q 435 2982 813 3526 
Q 826 3546 874 3606 
Q 922 3667 941 3706 
Q 986 3706 986 3622 
L 986 2880 
L 1632 2880 
L 1632 2675 
L 986 2675 
L 986 845 
Q 986 538 1062 403 
Q 1139 269 1318 269 
Q 1510 269 1702 493 
z
" transform="scale(0.015625)"/>
       <path id="STIXGeneral-Regular-69" d="M 1152 4045 
Q 1152 3904 1056 3811 
Q 960 3718 819 3718 
Q 685 3718 592 3811 
Q 499 3904 499 4045 
Q 499 4179 595 4275 
Q 691 4371 826 4371 
Q 966 4371 1059 4275 
Q 1152 4179 1152 4045 
z
M 1619 0 
L 102 0 
L 102 96 
Q 435 115 521 211 
Q 608 307 608 666 
L 608 2118 
Q 608 2342 563 2432 
Q 518 2522 397 2522 
Q 243 2522 128 2490 
L 128 2592 
L 1120 2944 
L 1146 2918 
L 1146 672 
Q 1146 314 1226 218 
Q 1306 122 1619 96 
L 1619 0 
z
" transform="scale(0.015625)"/>
       <path id="STIXGeneral-Regular-70" d="M 1018 2931 
L 1018 2438 
Q 1421 2944 1939 2944 
Q 2406 2944 2707 2560 
Q 3008 2176 3008 1581 
Q 3008 883 2621 409 
Q 2234 -64 1664 -64 
Q 1466 -64 1328 -6 
Q 1190 51 1018 211 
L 1018 -794 
Q 1018 -1094 1120 -1180 
Q 1222 -1267 1581 -1274 
L 1581 -1389 
L 32 -1389 
L 32 -1280 
Q 314 -1254 397 -1171 
Q 480 -1088 480 -838 
L 480 2157 
Q 480 2381 429 2451 
Q 378 2522 218 2522 
Q 115 2522 58 2515 
L 58 2618 
Q 506 2752 979 2944 
L 1018 2931 
z
M 1018 2138 
L 1018 563 
Q 1018 422 1238 281 
Q 1459 141 1683 141 
Q 2029 141 2243 467 
Q 2458 794 2458 1325 
Q 2458 1888 2243 2224 
Q 2029 2560 1670 2560 
Q 1446 2560 1232 2419 
Q 1018 2278 1018 2138 
z
" transform="scale(0.015625)"/>
       <path id="STIXGeneral-Regular-6f" d="M 3008 1478 
Q 3008 806 2608 371 
Q 2208 -64 1568 -64 
Q 979 -64 582 368 
Q 186 800 186 1459 
Q 186 2125 582 2534 
Q 979 2944 1626 2944 
Q 2221 2944 2614 2537 
Q 3008 2131 3008 1478 
z
M 2432 1306 
Q 2432 2035 2112 2445 
Q 1856 2765 1504 2765 
Q 1171 2765 966 2493 
Q 762 2221 762 1747 
Q 762 928 1101 435 
Q 1318 115 1677 115 
Q 2029 115 2230 432 
Q 2432 749 2432 1306 
z
" transform="scale(0.015625)"/>
       <path id="STIXGeneral-Regular-65" d="M 2611 1050 
L 2714 1005 
Q 2330 -64 1376 -64 
Q 813 -64 486 329 
Q 160 723 160 1389 
Q 160 2074 525 2509 
Q 890 2944 1485 2944 
Q 2061 2944 2374 2502 
Q 2560 2246 2592 1773 
L 621 1773 
Q 646 1370 700 1158 
Q 755 947 915 730 
Q 1184 378 1626 378 
Q 1939 378 2153 531 
Q 2368 685 2611 1050 
z
M 634 1978 
L 1939 1978 
Q 1882 2381 1750 2547 
Q 1619 2714 1312 2714 
Q 1043 2714 864 2525 
Q 685 2336 634 1978 
z
" transform="scale(0.015625)"/>
       <path id="STIXGeneral-Regular-20" transform="scale(0.015625)"/>
       <path id="STIXGeneral-Regular-6e" d="M 3104 0 
L 1773 0 
L 1779 96 
Q 2016 115 2096 233 
Q 2176 352 2176 672 
L 2176 1946 
Q 2176 2592 1709 2592 
Q 1549 2592 1408 2515 
Q 1267 2438 1050 2227 
L 1050 461 
Q 1050 269 1136 192 
Q 1222 115 1466 96 
L 1466 0 
L 115 0 
L 115 96 
Q 358 115 435 214 
Q 512 314 512 602 
L 512 2157 
Q 512 2394 467 2483 
Q 422 2573 288 2573 
Q 160 2573 102 2547 
L 102 2656 
Q 550 2784 979 2944 
L 1030 2925 
L 1030 2426 
L 1037 2426 
Q 1491 2944 1958 2944 
Q 2323 2944 2518 2688 
Q 2714 2432 2714 1958 
L 2714 544 
Q 2714 288 2790 205 
Q 2867 122 3104 96 
L 3104 0 
z
" transform="scale(0.015625)"/>
       <path id="DejaVuSans-Oblique-2113" d="M 950 838 
Q 1078 213 1350 213 
Q 1531 213 1766 572 
L 2181 572 
Q 1994 253 1775 88 
Q 1538 -91 1319 -91 
Q 831 -91 634 344 
L 400 0 
L -88 0 
Q 250 459 500 888 
Q 469 1131 469 1397 
Q 469 1872 566 2347 
Q 931 4131 1256 4497 
Q 1481 4750 1866 4750 
Q 2256 4750 2256 4209 
Q 2253 3966 2197 3675 
Q 1972 2484 950 838 
z
M 947 1656 
Q 1531 2744 1709 3613 
Q 1803 4072 1803 4191 
Q 1803 4406 1725 4406 
Q 1384 4134 1081 2516 
Q 997 2063 947 1656 
z
" transform="scale(0.015625)"/>
      </defs>
      <use xlink:href="#STIXGeneral-Regular-6d" transform="translate(0 0.78125)"/>
      <use xlink:href="#STIXGeneral-Regular-75" transform="translate(77.799988 0.78125)"/>
      <use xlink:href="#STIXGeneral-Regular-6c" transform="translate(127.799973 0.78125)"/>
      <use xlink:href="#STIXGeneral-Regular-74" transform="translate(155.59996 0.78125)"/>
      <use xlink:href="#STIXGeneral-Regular-69" transform="translate(183.399948 0.78125)"/>
      <use xlink:href="#STIXGeneral-Regular-70" transform="translate(211.199936 0.78125)"/>
      <use xlink:href="#STIXGeneral-Regular-6f" transform="translate(261.199921 0.78125)"/>
      <use xlink:href="#STIXGeneral-Regular-6c" transform="translate(311.199905 0.78125)"/>
      <use xlink:href="#STIXGeneral-Regular-65" transform="translate(338.999893 0.78125)"/>
      <use xlink:href="#STIXGeneral-Regular-20" transform="translate(383.399887 0.78125)"/>
      <use xlink:href="#STIXGeneral-Regular-6d" transform="translate(408.399872 0.78125)"/>
      <use xlink:href="#STIXGeneral-Regular-6f" transform="translate(486.19986 0.78125)"/>
      <use xlink:href="#STIXGeneral-Regular-6d" transform="translate(536.199844 0.78125)"/>
      <use xlink:href="#STIXGeneral-Regular-65" transform="translate(613.999832 0.78125)"/>
      <use xlink:href="#STIXGeneral-Regular-6e" transform="translate(658.399826 0.78125)"/>
      <use xlink:href="#STIXGeneral-Regular-74" transform="translate(708.399811 0.78125)"/>
      <use xlink:href="#STIXGeneral-Regular-20" transform="translate(736.199799 0.78125)"/>
      <use xlink:href="#DejaVuSans-Oblique-2113" transform="translate(761.199783 0.78125)"/>
     </g>
    </g>
   </g>
   <g id="matplotlib.axis_2">
    <g id="ytick_1">
     <g id="line2d_57">
      <defs>
       <path id="m0c3aa9128c" d="M 0 0 
L 6 0 
" style="stroke: #000000"/>
      </defs>
      <g>
       <use xlink:href="#m0c3aa9128c" x="62.3" y="331.99108" style="stroke: #000000"/>
      </g>
     </g>
     <g id="line2d_58">
      <defs>
       <path id="m26c5e1b084" d="M 0 0 
L -6 0 
" style="stroke: #000000"/>
      </defs>
      <g>
       <use xlink:href="#m26c5e1b084" x="529.35" y="331.99108" style="stroke: #000000"/>
      </g>
     </g>
     <g id="text_5">
      <!-- 0 -->
      <g transform="translate(50.8 337.45483) scale(0.16 -0.16)">
       <use xlink:href="#STIXGeneral-Regular-30"/>
      </g>
     </g>
    </g>
    <g id="ytick_2">
     <g id="line2d_59">
      <g>
       <use xlink:href="#m0c3aa9128c" x="62.3" y="261.915789" style="stroke: #000000"/>
      </g>
     </g>
     <g id="line2d_60">
      <g>
       <use xlink:href="#m26c5e1b084" x="529.35" y="261.915789" style="stroke: #000000"/>
      </g>
     </g>
     <g id="text_6">
      <!-- 2000 -->
      <g transform="translate(26.8 267.379539) scale(0.16 -0.16)">
       <defs>
        <path id="STIXGeneral-Regular-32" d="M 3034 877 
L 2688 0 
L 186 0 
L 186 77 
L 1325 1286 
Q 1773 1754 1965 2144 
Q 2157 2534 2157 2950 
Q 2157 3379 1920 3616 
Q 1683 3853 1267 3853 
Q 922 3853 720 3673 
Q 518 3494 326 3021 
L 192 3053 
Q 301 3648 630 3987 
Q 960 4326 1523 4326 
Q 2054 4326 2380 4006 
Q 2707 3686 2707 3200 
Q 2707 2477 1888 1613 
L 832 486 
L 2330 486 
Q 2541 486 2665 569 
Q 2790 653 2944 915 
L 3034 877 
z
" transform="scale(0.015625)"/>
       </defs>
       <use xlink:href="#STIXGeneral-Regular-32"/>
       <use xlink:href="#STIXGeneral-Regular-30" x="49.999985"/>
       <use xlink:href="#STIXGeneral-Regular-30" x="99.999969"/>
       <use xlink:href="#STIXGeneral-Regular-30" x="149.999954"/>
      </g>
     </g>
    </g>
    <g id="ytick_3">
     <g id="line2d_61">
      <g>
       <use xlink:href="#m0c3aa9128c" x="62.3" y="191.840498" style="stroke: #000000"/>
      </g>
     </g>
     <g id="line2d_62">
      <g>
       <use xlink:href="#m26c5e1b084" x="529.35" y="191.840498" style="stroke: #000000"/>
      </g>
     </g>
     <g id="text_7">
      <!-- 4000 -->
      <g transform="translate(26.8 197.304248) scale(0.16 -0.16)">
       <defs>
        <path id="STIXGeneral-Regular-34" d="M 3027 1069 
L 2368 1069 
L 2368 0 
L 1869 0 
L 1869 1069 
L 77 1069 
L 77 1478 
L 2086 4326 
L 2368 4326 
L 2368 1478 
L 3027 1478 
L 3027 1069 
z
M 1869 1478 
L 1869 3674 
L 333 1478 
L 1869 1478 
z
" transform="scale(0.015625)"/>
       </defs>
       <use xlink:href="#STIXGeneral-Regular-34"/>
       <use xlink:href="#STIXGeneral-Regular-30" x="49.999985"/>
       <use xlink:href="#STIXGeneral-Regular-30" x="99.999969"/>
       <use xlink:href="#STIXGeneral-Regular-30" x="149.999954"/>
      </g>
     </g>
    </g>
    <g id="ytick_4">
     <g id="line2d_63">
      <g>
       <use xlink:href="#m0c3aa9128c" x="62.3" y="121.765208" style="stroke: #000000"/>
      </g>
     </g>
     <g id="line2d_64">
      <g>
       <use xlink:href="#m26c5e1b084" x="529.35" y="121.765208" style="stroke: #000000"/>
      </g>
     </g>
     <g id="text_8">
      <!-- 6000 -->
      <g transform="translate(26.8 127.228958) scale(0.16 -0.16)">
       <defs>
        <path id="STIXGeneral-Regular-36" d="M 2854 4378 
L 2867 4275 
Q 2112 4154 1606 3664 
Q 1101 3174 973 2451 
Q 1344 2739 1786 2739 
Q 2349 2739 2672 2380 
Q 2995 2022 2995 1402 
Q 2995 774 2669 378 
Q 2291 -90 1651 -90 
Q 870 -90 518 557 
Q 218 1107 218 1786 
Q 218 2835 915 3552 
Q 1312 3962 1731 4131 
Q 2150 4301 2854 4378 
z
M 2419 1203 
Q 2419 2445 1555 2445 
Q 1235 2445 1024 2275 
Q 813 2106 813 1702 
Q 813 954 1046 522 
Q 1280 90 1722 90 
Q 2061 90 2240 394 
Q 2419 698 2419 1203 
z
" transform="scale(0.015625)"/>
       </defs>
       <use xlink:href="#STIXGeneral-Regular-36"/>
       <use xlink:href="#STIXGeneral-Regular-30" x="49.999985"/>
       <use xlink:href="#STIXGeneral-Regular-30" x="99.999969"/>
       <use xlink:href="#STIXGeneral-Regular-30" x="149.999954"/>
      </g>
     </g>
    </g>
    <g id="ytick_5">
     <g id="line2d_65">
      <g>
       <use xlink:href="#m0c3aa9128c" x="62.3" y="51.689917" style="stroke: #000000"/>
      </g>
     </g>
     <g id="line2d_66">
      <g>
       <use xlink:href="#m26c5e1b084" x="529.35" y="51.689917" style="stroke: #000000"/>
      </g>
     </g>
     <g id="text_9">
      <!-- 8000 -->
      <g transform="translate(26.8 57.153667) scale(0.16 -0.16)">
       <defs>
        <path id="STIXGeneral-Regular-38" d="M 2848 992 
Q 2848 499 2505 204 
Q 2163 -90 1587 -90 
Q 1050 -90 704 204 
Q 358 499 358 954 
Q 358 1293 524 1533 
Q 691 1773 1190 2125 
Q 710 2522 553 2765 
Q 397 3008 397 3328 
Q 397 3782 745 4054 
Q 1094 4326 1638 4326 
Q 2106 4326 2410 4060 
Q 2714 3795 2714 3411 
Q 2714 3059 2531 2848 
Q 2349 2637 1856 2374 
Q 2432 1990 2640 1689 
Q 2848 1389 2848 992 
z
M 2272 3411 
Q 2272 3744 2086 3945 
Q 1901 4147 1574 4147 
Q 1248 4147 1059 3977 
Q 870 3808 870 3513 
Q 870 3219 1059 2979 
Q 1248 2739 1670 2490 
Q 1997 2682 2134 2896 
Q 2272 3110 2272 3411 
z
M 1734 1741 
L 1357 1997 
Q 1075 1766 960 1545 
Q 845 1325 845 1011 
Q 845 576 1065 333 
Q 1286 90 1658 90 
Q 1971 90 2166 285 
Q 2362 480 2362 794 
Q 2362 1082 2214 1299 
Q 2067 1517 1734 1741 
z
" transform="scale(0.015625)"/>
       </defs>
       <use xlink:href="#STIXGeneral-Regular-38"/>
       <use xlink:href="#STIXGeneral-Regular-30" x="49.999985"/>
       <use xlink:href="#STIXGeneral-Regular-30" x="99.999969"/>
       <use xlink:href="#STIXGeneral-Regular-30" x="149.999954"/>
      </g>
     </g>
    </g>
    <g id="ytick_6">
     <g id="line2d_67">
      <defs>
       <path id="m3ab666709a" d="M 0 0 
L 3 0 
" style="stroke: #000000"/>
      </defs>
      <g>
       <use xlink:href="#m3ab666709a" x="62.3" y="314.472257" style="stroke: #000000"/>
      </g>
     </g>
     <g id="line2d_68">
      <defs>
       <path id="m987fc131e4" d="M 0 0 
L -3 0 
" style="stroke: #000000"/>
      </defs>
      <g>
       <use xlink:href="#m987fc131e4" x="529.35" y="314.472257" style="stroke: #000000"/>
      </g>
     </g>
    </g>
    <g id="ytick_7">
     <g id="line2d_69">
      <g>
       <use xlink:href="#m3ab666709a" x="62.3" y="296.953434" style="stroke: #000000"/>
      </g>
     </g>
     <g id="line2d_70">
      <g>
       <use xlink:href="#m987fc131e4" x="529.35" y="296.953434" style="stroke: #000000"/>
      </g>
     </g>
    </g>
    <g id="ytick_8">
     <g id="line2d_71">
      <g>
       <use xlink:href="#m3ab666709a" x="62.3" y="279.434612" style="stroke: #000000"/>
      </g>
     </g>
     <g id="line2d_72">
      <g>
       <use xlink:href="#m987fc131e4" x="529.35" y="279.434612" style="stroke: #000000"/>
      </g>
     </g>
    </g>
    <g id="ytick_9">
     <g id="line2d_73">
      <g>
       <use xlink:href="#m3ab666709a" x="62.3" y="244.396966" style="stroke: #000000"/>
      </g>
     </g>
     <g id="line2d_74">
      <g>
       <use xlink:href="#m987fc131e4" x="529.35" y="244.396966" style="stroke: #000000"/>
      </g>
     </g>
    </g>
    <g id="ytick_10">
     <g id="line2d_75">
      <g>
       <use xlink:href="#m3ab666709a" x="62.3" y="226.878144" style="stroke: #000000"/>
      </g>
     </g>
     <g id="line2d_76">
      <g>
       <use xlink:href="#m987fc131e4" x="529.35" y="226.878144" style="stroke: #000000"/>
      </g>
     </g>
    </g>
    <g id="ytick_11">
     <g id="line2d_77">
      <g>
       <use xlink:href="#m3ab666709a" x="62.3" y="209.359321" style="stroke: #000000"/>
      </g>
     </g>
     <g id="line2d_78">
      <g>
       <use xlink:href="#m987fc131e4" x="529.35" y="209.359321" style="stroke: #000000"/>
      </g>
     </g>
    </g>
    <g id="ytick_12">
     <g id="line2d_79">
      <g>
       <use xlink:href="#m3ab666709a" x="62.3" y="174.321676" style="stroke: #000000"/>
      </g>
     </g>
     <g id="line2d_80">
      <g>
       <use xlink:href="#m987fc131e4" x="529.35" y="174.321676" style="stroke: #000000"/>
      </g>
     </g>
    </g>
    <g id="ytick_13">
     <g id="line2d_81">
      <g>
       <use xlink:href="#m3ab666709a" x="62.3" y="156.802853" style="stroke: #000000"/>
      </g>
     </g>
     <g id="line2d_82">
      <g>
       <use xlink:href="#m987fc131e4" x="529.35" y="156.802853" style="stroke: #000000"/>
      </g>
     </g>
    </g>
    <g id="ytick_14">
     <g id="line2d_83">
      <g>
       <use xlink:href="#m3ab666709a" x="62.3" y="139.28403" style="stroke: #000000"/>
      </g>
     </g>
     <g id="line2d_84">
      <g>
       <use xlink:href="#m987fc131e4" x="529.35" y="139.28403" style="stroke: #000000"/>
      </g>
     </g>
    </g>
    <g id="ytick_15">
     <g id="line2d_85">
      <g>
       <use xlink:href="#m3ab666709a" x="62.3" y="104.246385" style="stroke: #000000"/>
      </g>
     </g>
     <g id="line2d_86">
      <g>
       <use xlink:href="#m987fc131e4" x="529.35" y="104.246385" style="stroke: #000000"/>
      </g>
     </g>
    </g>
    <g id="ytick_16">
     <g id="line2d_87">
      <g>
       <use xlink:href="#m3ab666709a" x="62.3" y="86.727563" style="stroke: #000000"/>
      </g>
     </g>
     <g id="line2d_88">
      <g>
       <use xlink:href="#m987fc131e4" x="529.35" y="86.727563" style="stroke: #000000"/>
      </g>
     </g>
    </g>
    <g id="ytick_17">
     <g id="line2d_89">
      <g>
       <use xlink:href="#m3ab666709a" x="62.3" y="69.20874" style="stroke: #000000"/>
      </g>
     </g>
     <g id="line2d_90">
      <g>
       <use xlink:href="#m987fc131e4" x="529.35" y="69.20874" style="stroke: #000000"/>
      </g>
     </g>
    </g>
    <g id="ytick_18">
     <g id="line2d_91">
      <g>
       <use xlink:href="#m3ab666709a" x="62.3" y="34.171095" style="stroke: #000000"/>
      </g>
     </g>
     <g id="line2d_92">
      <g>
       <use xlink:href="#m987fc131e4" x="529.35" y="34.171095" style="stroke: #000000"/>
      </g>
     </g>
    </g>
    <g id="ytick_19">
     <g id="line2d_93">
      <g>
       <use xlink:href="#m3ab666709a" x="62.3" y="16.652272" style="stroke: #000000"/>
      </g>
     </g>
     <g id="line2d_94">
      <g>
       <use xlink:href="#m987fc131e4" x="529.35" y="16.652272" style="stroke: #000000"/>
      </g>
     </g>
    </g>
    <g id="text_10">
     <!-- $\ell(\ell+1)C_{\ell}^{TT}/2\pi[\mu K^2]$ -->
     <g transform="translate(18.16 249.854375) rotate(-90) scale(0.16 -0.16)">
      <defs>
       <path id="DejaVuSans-28" d="M 1984 4856 
Q 1566 4138 1362 3434 
Q 1159 2731 1159 2009 
Q 1159 1288 1364 580 
Q 1569 -128 1984 -844 
L 1484 -844 
Q 1016 -109 783 600 
Q 550 1309 550 2009 
Q 550 2706 781 3412 
Q 1013 4119 1484 4856 
L 1984 4856 
z
" transform="scale(0.015625)"/>
       <path id="DejaVuSans-2b" d="M 2944 4013 
L 2944 2272 
L 4684 2272 
L 4684 1741 
L 2944 1741 
L 2944 0 
L 2419 0 
L 2419 1741 
L 678 1741 
L 678 2272 
L 2419 2272 
L 2419 4013 
L 2944 4013 
z
" transform="scale(0.015625)"/>
       <path id="DejaVuSans-31" d="M 794 531 
L 1825 531 
L 1825 4091 
L 703 3866 
L 703 4441 
L 1819 4666 
L 2450 4666 
L 2450 531 
L 3481 531 
L 3481 0 
L 794 0 
L 794 531 
z
" transform="scale(0.015625)"/>
       <path id="DejaVuSans-29" d="M 513 4856 
L 1013 4856 
Q 1481 4119 1714 3412 
Q 1947 2706 1947 2009 
Q 1947 1309 1714 600 
Q 1481 -109 1013 -844 
L 513 -844 
Q 928 -128 1133 580 
Q 1338 1288 1338 2009 
Q 1338 2731 1133 3434 
Q 928 4138 513 4856 
z
" transform="scale(0.015625)"/>
       <path id="DejaVuSans-Oblique-43" d="M 4447 4306 
L 4319 3641 
Q 4019 3944 3683 4091 
Q 3347 4238 2956 4238 
Q 2422 4238 2017 3981 
Q 1613 3725 1319 3200 
Q 1131 2863 1032 2486 
Q 934 2109 934 1728 
Q 934 1091 1264 756 
Q 1594 422 2222 422 
Q 2656 422 3056 561 
Q 3456 700 3834 978 
L 3688 231 
Q 3316 72 2936 -9 
Q 2556 -91 2175 -91 
Q 1278 -91 773 396 
Q 269 884 269 1753 
Q 269 2309 461 2846 
Q 653 3384 1013 3828 
Q 1394 4300 1883 4525 
Q 2372 4750 3022 4750 
Q 3422 4750 3780 4639 
Q 4138 4528 4447 4306 
z
" transform="scale(0.015625)"/>
       <path id="DejaVuSans-Oblique-54" d="M 378 4666 
L 4325 4666 
L 4225 4134 
L 2559 4134 
L 1759 0 
L 1125 0 
L 1925 4134 
L 275 4134 
L 378 4666 
z
" transform="scale(0.015625)"/>
       <path id="DejaVuSans-2f" d="M 1625 4666 
L 2156 4666 
L 531 -594 
L 0 -594 
L 1625 4666 
z
" transform="scale(0.015625)"/>
       <path id="DejaVuSans-32" d="M 1228 531 
L 3431 531 
L 3431 0 
L 469 0 
L 469 531 
Q 828 903 1448 1529 
Q 2069 2156 2228 2338 
Q 2531 2678 2651 2914 
Q 2772 3150 2772 3378 
Q 2772 3750 2511 3984 
Q 2250 4219 1831 4219 
Q 1534 4219 1204 4116 
Q 875 4013 500 3803 
L 500 4441 
Q 881 4594 1212 4672 
Q 1544 4750 1819 4750 
Q 2544 4750 2975 4387 
Q 3406 4025 3406 3419 
Q 3406 3131 3298 2873 
Q 3191 2616 2906 2266 
Q 2828 2175 2409 1742 
Q 1991 1309 1228 531 
z
" transform="scale(0.015625)"/>
       <path id="DejaVuSans-Oblique-3c0" d="M 584 3500 
L 3938 3500 
L 3825 2925 
L 3384 2925 
L 2966 775 
Q 2922 550 2981 450 
Q 3038 353 3209 353 
Q 3256 353 3325 363 
Q 3397 369 3419 372 
L 3338 -44 
Q 3222 -84 3103 -103 
Q 2981 -122 2866 -122 
Q 2491 -122 2388 81 
Q 2284 288 2391 838 
L 2797 2925 
L 1506 2925 
L 938 0 
L 350 0 
L 919 2925 
L 472 2925 
L 584 3500 
z
" transform="scale(0.015625)"/>
       <path id="DejaVuSans-5b" d="M 550 4863 
L 1875 4863 
L 1875 4416 
L 1125 4416 
L 1125 -397 
L 1875 -397 
L 1875 -844 
L 550 -844 
L 550 4863 
z
" transform="scale(0.015625)"/>
       <path id="DejaVuSans-Oblique-3bc" d="M -84 -1331 
L 856 3500 
L 1434 3500 
L 1009 1322 
Q 997 1256 987 1175 
Q 978 1094 978 1013 
Q 978 722 1161 565 
Q 1344 409 1684 409 
Q 2147 409 2431 671 
Q 2716 934 2816 1459 
L 3213 3500 
L 3788 3500 
L 3266 809 
Q 3253 750 3248 706 
Q 3244 663 3244 628 
Q 3244 531 3283 486 
Q 3322 441 3406 441 
Q 3438 441 3492 456 
Q 3547 472 3647 513 
L 3559 50 
Q 3422 -19 3297 -55 
Q 3172 -91 3053 -91 
Q 2847 -91 2730 40 
Q 2613 172 2613 403 
Q 2438 153 2195 31 
Q 1953 -91 1625 -91 
Q 1334 -91 1117 43 
Q 900 178 831 397 
L 494 -1331 
L -84 -1331 
z
" transform="scale(0.015625)"/>
       <path id="DejaVuSans-Oblique-4b" d="M 1081 4666 
L 1716 4666 
L 1331 2700 
L 3781 4666 
L 4622 4666 
L 1850 2438 
L 3878 0 
L 3109 0 
L 1247 2272 
L 806 0 
L 172 0 
L 1081 4666 
z
" transform="scale(0.015625)"/>
       <path id="DejaVuSans-5d" d="M 1947 4863 
L 1947 -844 
L 622 -844 
L 622 -397 
L 1369 -397 
L 1369 4416 
L 622 4416 
L 622 4863 
L 1947 4863 
z
" transform="scale(0.015625)"/>
      </defs>
      <use xlink:href="#DejaVuSans-Oblique-2113" transform="translate(0 0.765625)"/>
      <use xlink:href="#DejaVuSans-28" transform="translate(41.308594 0.765625)"/>
      <use xlink:href="#DejaVuSans-Oblique-2113" transform="translate(80.322266 0.765625)"/>
      <use xlink:href="#DejaVuSans-2b" transform="translate(141.113281 0.765625)"/>
      <use xlink:href="#DejaVuSans-31" transform="translate(244.384766 0.765625)"/>
      <use xlink:href="#DejaVuSans-29" transform="translate(308.007812 0.765625)"/>
      <use xlink:href="#DejaVuSans-Oblique-43" transform="translate(347.021484 0.765625)"/>
      <use xlink:href="#DejaVuSans-Oblique-54" transform="translate(424.046224 39.046875) scale(0.7)"/>
      <use xlink:href="#DejaVuSans-Oblique-54" transform="translate(466.805013 39.046875) scale(0.7)"/>
      <use xlink:href="#DejaVuSans-Oblique-2113" transform="translate(416.845703 -26.578125) scale(0.7)"/>
      <use xlink:href="#DejaVuSans-2f" transform="translate(512.298177 0.765625)"/>
      <use xlink:href="#DejaVuSans-32" transform="translate(542.364583 0.765625)"/>
      <use xlink:href="#DejaVuSans-Oblique-3c0" transform="translate(605.98763 0.765625)"/>
      <use xlink:href="#DejaVuSans-5b" transform="translate(666.192708 0.765625)"/>
      <use xlink:href="#DejaVuSans-Oblique-3bc" transform="translate(705.20638 0.765625)"/>
      <use xlink:href="#DejaVuSans-Oblique-4b" transform="translate(768.829427 0.765625)"/>
      <use xlink:href="#DejaVuSans-32" transform="translate(841.42237 39.046875) scale(0.7)"/>
      <use xlink:href="#DejaVuSans-5d" transform="translate(888.692878 0.765625)"/>
     </g>
    </g>
   </g>
   <g id="line2d_95">
    <path d="M -1 331.99108 
L 16.90118 331.99108 
L 62.3 276.351985 
L 88.856607 279.288618 
L 122.313975 284.174978 
L 134.255427 285.609871 
L 144.35178 286.544834 
L 153.09764 287.08671 
L 160.812034 287.330564 
L 167.712795 287.377238 
L 173.955293 287.242049 
L 179.654247 286.991132 
L 184.896776 286.64618 
L 194.269402 285.710641 
L 202.467169 284.570938 
L 209.752076 283.279541 
L 216.307207 281.855874 
L 222.265554 280.345558 
L 227.72677 278.744348 
L 232.767461 277.083926 
L 237.447784 275.360319 
L 241.815846 273.576962 
L 247.865989 270.816186 
L 253.404215 267.978931 
L 258.510435 265.019353 
L 263.247196 261.968168 
L 267.664374 258.875116 
L 271.80238 255.674365 
L 275.694416 252.356894 
L 279.368088 248.972391 
L 282.846604 245.502642 
L 286.149656 241.924341 
L 289.294099 238.231544 
L 292.29447 234.436289 
L 296.092441 229.207107 
L 299.682197 223.784326 
L 303.085386 218.154144 
L 306.320446 212.317678 
L 309.403211 206.268296 
L 312.347376 200.014848 
L 315.164871 193.560974 
L 318.52441 185.225302 
L 321.720002 176.616881 
L 324.766908 167.758757 
L 328.245423 156.855819 
L 331.548475 145.715161 
L 335.202623 132.547074 
L 339.143459 117.449144 
L 344.201854 97.064774 
L 353.278784 60.194972 
L 356.290655 48.942579 
L 358.81701 40.346225 
L 360.907506 34.021598 
L 362.60002 29.553335 
L 364.249897 25.851566 
L 365.540513 23.461862 
L 366.806188 21.595217 
L 367.739648 20.545967 
L 368.659991 19.802176 
L 369.56758 19.365813 
L 370.462765 19.23767 
L 371.345879 19.417757 
L 372.217244 19.905271 
L 373.077169 20.69858 
L 373.92595 21.79519 
L 374.763871 23.191726 
L 375.864681 25.512843 
L 376.947295 28.347294 
L 378.275873 32.589217 
L 379.578036 37.573828 
L 381.107211 44.473762 
L 382.601496 52.289299 
L 384.302803 62.431931 
L 386.194535 75.186129 
L 388.259399 90.70162 
L 390.915032 112.575264 
L 394.911252 147.772582 
L 398.677604 180.401074 
L 400.949392 198.189932 
L 402.784152 210.865678 
L 404.215829 219.405331 
L 405.616881 226.404687 
L 406.818688 231.239293 
L 407.831543 234.429656 
L 408.663786 236.427719 
L 409.485587 237.841643 
L 410.135683 238.566429 
L 410.77939 238.944766 
L 411.258052 239.010743 
L 411.733241 238.896826 
L 412.361511 238.474906 
L 412.983812 237.75844 
L 413.753464 236.47546 
L 414.665265 234.420197 
L 415.713234 231.412361 
L 417.036444 226.810027 
L 418.760139 219.908 
L 423.80608 198.977003 
L 424.976856 195.320243 
L 426.000262 192.787452 
L 426.88281 191.182153 
L 427.629928 190.298163 
L 428.246082 189.929746 
L 428.734865 189.87573 
L 429.220028 190.029443 
L 429.82147 190.503646 
L 430.41744 191.277688 
L 431.125519 192.579245 
L 431.942051 194.571002 
L 432.862933 197.400296 
L 433.996121 201.619853 
L 435.550352 208.390507 
L 439.281845 225.15421 
L 440.513794 229.509597 
L 441.422783 231.943913 
L 442.121154 233.257645 
L 442.713888 233.971358 
L 443.203768 234.273678 
L 443.690011 234.30944 
L 444.172671 234.078566 
L 444.6518 233.581545 
L 445.222167 232.635512 
L 445.881376 231.06788 
L 446.719298 228.394102 
L 447.729077 224.287049 
L 448.992137 218.109953 
L 453.230363 196.402275 
L 454.145251 193.296047 
L 454.802689 191.728031 
L 455.372582 190.898594 
L 455.776635 190.64544 
L 456.098091 190.653126 
L 456.497706 190.923185 
L 456.894897 191.479346 
L 457.368369 192.518681 
L 457.994387 194.522275 
L 458.691579 197.594549 
L 459.533745 202.453914 
L 460.515269 209.52184 
L 461.777 220.327046 
L 464.512423 246.399368 
L 465.976486 258.967492 
L 467.070401 266.620854 
L 467.945948 271.288916 
L 468.677761 274.092556 
L 469.270495 275.631008 
L 469.792904 276.448804 
L 470.246618 276.756759 
L 470.63303 276.738387 
L 471.017176 276.484715 
L 471.525891 275.825139 
L 472.156277 274.576636 
L 473.028748 272.28423 
L 475.81626 264.483162 
L 476.465624 263.428309 
L 476.992174 262.949493 
L 477.398806 262.848858 
L 477.80293 263.003313 
L 478.204575 263.406749 
L 478.717383 264.274633 
L 479.338745 265.836066 
L 480.065561 268.325261 
L 481.004003 272.397648 
L 482.89476 281.912244 
L 484.212644 287.947545 
L 485.093895 290.99458 
L 485.810832 292.717115 
L 486.368685 293.521883 
L 486.821602 293.825926 
L 487.221583 293.850734 
L 487.668661 293.628126 
L 488.161861 293.105211 
L 488.797519 292.075673 
L 489.811494 289.935585 
L 491.233329 287.022009 
L 491.886435 286.131062 
L 492.39506 285.781203 
L 492.808289 285.74708 
L 493.218928 285.950209 
L 493.672194 286.466089 
L 494.16719 287.392462 
L 494.791822 289.06446 
L 495.586265 291.886883 
L 496.717046 296.841803 
L 498.838237 306.237338 
L 499.70905 309.080569 
L 500.405612 310.685241 
L 500.97374 311.513858 
L 501.496911 311.914409 
L 501.976157 312.014064 
L 502.491413 311.881843 
L 503.159151 311.444527 
L 505.198272 309.926754 
L 505.726473 309.860985 
L 506.250449 310.022419 
L 506.770267 310.420432 
L 507.395977 311.217031 
L 508.196947 312.649664 
L 509.628624 315.796492 
L 510.821419 318.159629 
L 511.581811 319.21347 
L 512.231483 319.760637 
L 512.807356 319.973128 
L 513.411635 319.961077 
L 514.208764 319.700664 
L 515.80672 319.1291 
L 516.447907 319.165281 
L 517.051274 319.433873 
L 517.71175 319.99358 
L 518.489444 320.970888 
L 519.926972 323.226816 
L 521.096319 324.864986 
L 521.893808 325.622129 
L 522.623664 326.012889 
L 523.374185 326.150248 
L 524.42762 326.086322 
L 525.714103 326.049198 
L 526.539702 326.249774 
L 527.436001 326.702296 
L 529.35 328.012799 
L 529.35 328.012799 
" clip-path="url(#p9ed4d79eb8)" style="fill: none; stroke: #0c5da5; stroke-width: 2; stroke-linecap: square"/>
   </g>
   <g id="line2d_96">
    <path d="M -1 331.99108 
L 16.90118 331.99108 
L 62.3 281.646745 
L 88.856607 284.30392 
L 122.313975 288.725282 
L 134.255427 290.023626 
L 144.35178 290.869616 
L 153.09764 291.359926 
L 160.812034 291.580574 
L 167.712795 291.622806 
L 173.955293 291.500482 
L 184.896776 290.961318 
L 194.269402 290.114807 
L 202.467169 289.083561 
L 209.752076 287.915057 
L 216.307207 286.62687 
L 222.265554 285.260279 
L 227.72677 283.811444 
L 232.767461 282.309033 
L 237.447784 280.749449 
L 243.895279 278.312415 
L 249.764575 275.791255 
L 255.150896 273.190958 
L 260.127718 270.476535 
L 264.752932 267.705994 
L 269.072958 264.88062 
L 273.12559 261.945995 
L 276.942009 258.920664 
L 280.54824 255.836166 
L 283.966232 252.665412 
L 287.214665 249.392633 
L 290.309571 246.019555 
L 294.220981 241.376217 
L 297.91191 236.557594 
L 301.405893 231.558035 
L 304.722888 226.370345 
L 307.879964 220.99329 
L 310.891835 215.42565 
L 313.771272 209.676857 
L 316.529434 203.747977 
L 319.821416 196.105238 
L 322.955825 188.221589 
L 325.947059 180.127051 
L 329.365051 170.181948 
L 332.613485 160.049417 
L 336.210283 148.107938 
L 340.562215 132.777281 
L 346.378023 111.314082 
L 352.892372 87.42051 
L 355.921659 77.079019 
L 358.462013 69.141189 
L 360.563691 63.266458 
L 362.264998 59.088115 
L 363.92323 55.597694 
L 365.220235 53.318965 
L 366.492055 51.51054 
L 367.739648 50.183888 
L 368.659991 49.510878 
L 369.56758 49.116041 
L 370.462765 49.000092 
L 371.345879 49.163041 
L 372.217244 49.604163 
L 373.077169 50.321978 
L 373.92595 51.314232 
L 375.040813 53.058744 
L 376.137017 55.276218 
L 377.215175 57.955054 
L 378.538385 61.930522 
L 379.835391 66.570683 
L 381.358638 72.958192 
L 382.847262 80.159131 
L 384.542279 89.469068 
L 386.427205 101.135077 
L 388.484861 115.276466 
L 391.13155 135.134138 
L 395.318065 168.58141 
L 398.869958 196.255027 
L 401.135198 212.154299 
L 402.964832 223.431478 
L 404.392609 230.988398 
L 405.616881 236.452561 
L 406.818688 240.827093 
L 407.831543 243.713853 
L 408.663786 245.521775 
L 409.485587 246.801146 
L 410.135683 247.45696 
L 410.77939 247.799293 
L 411.416832 247.84248 
L 412.04813 247.599252 
L 412.673401 247.08238 
L 413.446688 246.074167 
L 414.210952 244.695005 
L 415.11645 242.605107 
L 416.30463 239.209363 
L 417.760171 234.288338 
L 419.884573 226.192019 
L 423.013773 214.229721 
L 424.329011 210.074091 
L 425.490558 207.099723 
L 426.379954 205.345988 
L 427.132797 204.268068 
L 427.753623 203.690782 
L 428.36862 203.41853 
L 428.856493 203.417164 
L 429.340759 203.602339 
L 429.941099 204.086775 
L 430.654318 205.021211 
L 431.476708 206.564544 
L 432.40411 208.866419 
L 433.431978 212.041924 
L 434.777847 217.007194 
L 436.96127 226.128574 
L 439.074249 234.573785 
L 440.310071 238.677532 
L 441.221873 241.039513 
L 442.021842 242.512177 
L 442.615471 243.215556 
L 443.203768 243.572718 
L 443.690011 243.605077 
L 444.172671 243.396174 
L 444.6518 242.94645 
L 445.222167 242.090444 
L 445.881376 240.671993 
L 446.719298 238.252658 
L 447.729077 234.536443 
L 448.992137 228.947175 
L 453.230363 209.305255 
L 454.145251 206.494624 
L 454.802689 205.075825 
L 455.372582 204.325319 
L 455.776635 204.096256 
L 456.17821 204.131213 
L 456.577337 204.427617 
L 457.053102 205.123784 
L 457.603828 206.397043 
L 458.22761 208.445121 
L 458.999075 211.862153 
L 459.912997 217.102642 
L 461.037753 225.04765 
L 462.58065 237.769956 
L 465.700128 263.928839 
L 466.866679 271.67918 
L 467.744935 276.20996 
L 468.545311 279.210347 
L 469.2049 280.869355 
L 469.72783 281.666827 
L 470.181994 281.99351 
L 470.568787 282.01454 
L 470.953308 281.818914 
L 471.462517 281.261092 
L 472.093511 280.169378 
L 472.966812 278.127228 
L 475.934806 270.702151 
L 476.583001 269.827851 
L 477.108613 269.47059 
L 477.514525 269.445038 
L 477.917937 269.65007 
L 478.375958 270.15654 
L 478.944015 271.17672 
L 479.619245 272.927658 
L 480.453608 275.817578 
L 481.604144 280.730859 
L 484.212644 292.138841 
L 485.093895 294.895912 
L 485.810832 296.454527 
L 486.368685 297.182711 
L 486.821602 297.457821 
L 487.27141 297.469305 
L 487.718149 297.242754 
L 488.260057 296.683143 
L 488.943337 295.620762 
L 490.241295 293.074976 
L 491.32703 291.162721 
L 491.979207 290.415486 
L 492.487114 290.153689 
L 492.899765 290.16976 
L 493.309832 290.402463 
L 493.762472 290.925872 
L 494.301542 291.920942 
L 494.969199 293.663159 
L 495.805245 296.510223 
L 497.146815 302.00919 
L 498.796479 308.545245 
L 499.667844 311.157362 
L 500.405612 312.712759 
L 501.014133 313.50121 
L 501.536982 313.84087 
L 502.055691 313.910164 
L 502.609745 313.74186 
L 503.354256 313.252401 
L 505.008591 312.095115 
L 505.613645 311.962675 
L 506.175852 312.079239 
L 506.733273 312.440148 
L 507.359336 313.14384 
L 508.160751 314.424484 
L 509.522327 317.124095 
L 510.786645 319.423001 
L 511.547439 320.394967 
L 512.231483 320.924517 
L 512.841074 321.121375 
L 513.511808 321.087401 
L 514.40654 320.791157 
L 515.742255 320.360771 
L 516.415996 320.378881 
L 517.051274 320.628849 
L 517.71175 321.135293 
L 518.520361 322.059751 
L 520.138398 324.35844 
L 521.21508 325.665062 
L 522.011133 326.302466 
L 522.73969 326.615012 
L 523.546168 326.709302 
L 526.539702 326.796132 
L 527.489929 327.236108 
L 529.35 328.391383 
L 529.35 328.391383 
" clip-path="url(#p9ed4d79eb8)" style="fill: none; stroke: #00b945; stroke-width: 2; stroke-linecap: square"/>
   </g>
   <g id="line2d_97">
    <path d="M -1 331.99108 
L 16.90118 331.99108 
L 62.3 286.437642 
L 88.856607 288.841954 
L 122.313975 292.842567 
L 134.255427 294.017357 
L 144.35178 294.782841 
L 153.09764 295.226491 
L 160.812034 295.426142 
L 167.712795 295.464355 
L 179.654247 295.148238 
L 189.7506 294.511965 
L 198.496459 293.655715 
L 206.210854 292.652738 
L 213.111615 291.539198 
L 219.354113 290.334622 
L 225.053066 289.060402 
L 232.767461 287.036905 
L 239.668222 284.901874 
L 245.91072 282.666708 
L 251.609674 280.366138 
L 256.852203 277.978658 
L 261.706027 275.496241 
L 266.224829 272.980268 
L 270.451886 270.393587 
L 274.422596 267.705449 
L 279.368088 264.021126 
L 282.846604 261.180336 
L 286.149656 258.250671 
L 289.294099 255.227265 
L 293.264809 251.06473 
L 297.008493 246.743916 
L 300.549715 242.262608 
L 303.909254 237.610627 
L 307.104847 232.788959 
L 310.151752 227.793174 
L 313.063194 222.632503 
L 315.850706 217.307838 
L 319.176123 210.4374 
L 322.340828 203.346255 
L 325.359641 196.057239 
L 328.80763 187.093882 
L 332.083145 177.947894 
L 335.708391 167.153699 
L 339.619801 154.801204 
L 344.642911 138.16624 
L 353.278784 109.463248 
L 356.290655 100.250567 
L 358.81701 93.212468 
L 360.907506 88.034302 
L 362.60002 84.375997 
L 364.249897 81.345245 
L 365.540513 79.388721 
L 366.806188 77.860441 
L 368.047868 76.770499 
L 368.96392 76.245324 
L 369.867337 75.972136 
L 370.758461 75.951372 
L 371.637624 76.18282 
L 372.505142 76.665601 
L 373.36132 77.398143 
L 374.20645 78.378168 
L 375.316589 80.064533 
L 376.408225 82.176419 
L 377.481965 84.702786 
L 378.799849 88.422875 
L 380.091738 92.737524 
L 381.609103 98.645525 
L 383.336045 106.445281 
L 385.018621 115.101374 
L 386.890081 125.874099 
L 389.156627 140.322611 
L 391.990535 159.960775 
L 400.012371 216.634546 
L 402.056404 228.879229 
L 403.682611 237.335876 
L 405.094992 243.54582 
L 406.306326 247.926828 
L 407.327073 250.897935 
L 408.332157 253.154279 
L 409.158103 254.501366 
L 409.973763 255.380162 
L 410.619055 255.759659 
L 411.258052 255.865219 
L 411.890875 255.708911 
L 412.517642 255.301946 
L 413.292759 254.460582 
L 414.058811 253.277152 
L 414.9664 251.4537 
L 416.0096 248.857211 
L 417.326895 244.973322 
L 419.184068 238.747376 
L 423.411125 224.228973 
L 424.718486 220.701824 
L 425.745906 218.484073 
L 426.631864 217.031905 
L 427.381834 216.180955 
L 428.000315 215.768502 
L 428.613011 215.631788 
L 429.220028 215.762722 
L 429.82147 216.150967 
L 430.535986 216.939757 
L 431.242792 218.05864 
L 432.057872 219.745559 
L 433.091144 222.443295 
L 434.332289 226.385115 
L 436.096616 232.876364 
L 438.970203 243.498678 
L 440.207972 247.282441 
L 441.221873 249.694699 
L 442.021842 251.02722 
L 442.713888 251.739319 
L 443.301306 252.010162 
L 443.786828 251.995771 
L 444.268778 251.76312 
L 444.842475 251.196563 
L 445.505498 250.143741 
L 446.25511 248.459316 
L 447.180219 245.727896 
L 448.273374 241.726234 
L 449.879639 234.849766 
L 452.556869 223.319681 
L 453.56453 219.959276 
L 454.392564 217.895908 
L 455.047536 216.808933 
L 455.534503 216.362697 
L 455.93756 216.251151 
L 456.338153 216.377735 
L 456.73631 216.739756 
L 457.210925 217.480529 
L 457.760331 218.759173 
L 458.460005 221.040904 
L 459.228754 224.380686 
L 460.139499 229.37391 
L 461.334454 237.321351 
L 463.086977 250.732687 
L 465.492092 269.002957 
L 466.730511 276.684164 
L 467.677793 281.245886 
L 468.478985 284.045407 
L 469.139239 285.614465 
L 469.662692 286.388324 
L 470.117306 286.72778 
L 470.50448 286.781425 
L 470.953308 286.593427 
L 471.462517 286.088689 
L 472.093511 285.100865 
L 472.966812 283.253051 
L 475.934806 276.534564 
L 476.583001 275.743464 
L 477.108613 275.420202 
L 477.514525 275.39708 
L 477.917937 275.582602 
L 478.375958 276.040875 
L 478.944015 276.963971 
L 479.619245 278.548286 
L 480.453608 281.163194 
L 481.604144 285.608914 
L 484.212644 295.931283 
L 485.093895 298.425984 
L 485.810832 299.836277 
L 486.368685 300.495165 
L 486.871734 300.75662 
L 487.321198 300.741906 
L 487.817011 300.477156 
L 488.407075 299.862895 
L 489.185648 298.678897 
L 491.60733 294.711695 
L 492.210562 294.230331 
L 492.670836 294.117817 
L 493.127897 294.24185 
L 493.581791 294.613384 
L 494.077468 295.316917 
L 494.702953 296.624945 
L 495.498468 298.873912 
L 496.587563 302.721376 
L 498.921672 311.159431 
L 499.791384 313.41538 
L 500.487075 314.666615 
L 501.094843 315.325687 
L 501.617052 315.592559 
L 502.13513 315.621579 
L 502.727863 315.422735 
L 503.62643 314.839927 
L 504.932565 314.0189 
L 505.575993 313.869228 
L 506.138521 313.960296 
L 506.696259 314.271825 
L 507.322674 314.892862 
L 508.124535 316.037157 
L 509.451367 318.408925 
L 510.751853 320.570496 
L 511.547439 321.498483 
L 512.231483 321.97764 
L 512.874774 322.159304 
L 513.578505 322.111918 
L 514.60372 321.783699 
L 515.774496 321.463864 
L 516.479802 321.497017 
L 517.146036 321.762002 
L 517.868029 322.308954 
L 518.767169 323.30412 
L 521.422395 326.444708 
L 522.215947 326.946515 
L 522.971127 327.171637 
L 523.888784 327.200637 
L 526.073141 327.175661 
L 527.002963 327.459045 
L 528.186994 328.077669 
L 529.35 328.733939 
L 529.35 328.733939 
" clip-path="url(#p9ed4d79eb8)" style="fill: none; stroke: #ff9500; stroke-width: 2; stroke-linecap: square"/>
   </g>
   <g id="line2d_98">
    <path d="M -1 331.99108 
L 16.90118 331.99108 
L 62.3 290.772625 
L 88.856607 292.948136 
L 122.313975 296.56804 
L 134.255427 297.631035 
L 144.35178 298.323673 
L 153.09764 298.725104 
L 160.812034 298.905756 
L 167.712795 298.940333 
L 179.654247 298.654298 
L 189.7506 298.078574 
L 198.496459 297.303808 
L 206.210854 296.396276 
L 213.111615 295.388703 
L 219.354113 294.298758 
L 225.053066 293.145796 
L 232.767461 291.31486 
L 239.668222 289.383004 
L 245.91072 287.360542 
L 251.609674 285.278901 
L 256.852203 283.11862 
L 261.706027 280.872436 
L 266.224829 278.595889 
L 270.451886 276.255363 
L 274.422596 273.823036 
L 279.368088 270.489323 
L 282.846604 267.918869 
L 286.149656 265.267999 
L 290.309571 261.603549 
L 294.220981 257.801905 
L 297.91191 253.85675 
L 301.405893 249.763457 
L 304.722888 245.516136 
L 307.879964 241.113776 
L 310.891835 236.555378 
L 313.771272 231.848664 
L 317.2012 225.759206 
L 320.460412 219.461591 
L 323.5651 212.969785 
L 326.529256 206.311745 
L 329.917769 198.138905 
L 333.661454 188.430923 
L 337.69329 177.242055 
L 342.407313 163.382674 
L 354.80203 126.339462 
L 357.385332 119.461741 
L 359.521282 114.29029 
L 361.589769 109.859132 
L 363.264966 106.773346 
L 364.898384 104.264355 
L 366.176408 102.68656 
L 367.429971 101.500952 
L 368.354645 100.874263 
L 369.266446 100.474988 
L 370.165727 100.303916 
L 371.052829 100.361249 
L 371.928075 100.646596 
L 372.79178 101.158955 
L 373.644243 101.896691 
L 374.763871 103.226892 
L 375.864681 104.946418 
L 376.947295 107.046231 
L 378.275873 110.188724 
L 379.578036 113.881415 
L 381.107211 118.993012 
L 382.601496 124.782904 
L 384.302803 132.29675 
L 386.194535 141.745293 
L 388.259399 153.239451 
L 390.915032 169.443845 
L 394.911252 195.51866 
L 398.677604 219.690441 
L 400.949392 232.868751 
L 402.784152 242.259175 
L 404.215829 248.585506 
L 405.616881 253.770756 
L 406.818688 257.35232 
L 407.831543 259.715799 
L 408.663786 261.196001 
L 409.485587 262.243461 
L 410.135683 262.780396 
L 410.77939 263.060675 
L 411.416832 263.096033 
L 412.04813 262.896895 
L 412.673401 262.473716 
L 413.446688 261.648261 
L 414.36274 260.259527 
L 415.415522 258.161291 
L 416.598338 255.26163 
L 418.1906 250.712254 
L 420.715409 242.672746 
L 423.013773 235.576234 
L 424.329011 232.173892 
L 425.490558 229.738685 
L 426.50603 228.13275 
L 427.257434 227.306185 
L 427.877085 226.883076 
L 428.490929 226.709929 
L 429.099073 226.780673 
L 429.701623 227.086219 
L 430.41744 227.748035 
L 431.125519 228.712253 
L 431.942051 230.187782 
L 432.977138 232.573166 
L 434.220425 236.089357 
L 435.878657 241.553076 
L 439.074249 252.232544 
L 440.310071 255.592408 
L 441.221873 257.526235 
L 442.021842 258.73195 
L 442.713888 259.376284 
L 443.301306 259.621352 
L 443.786828 259.608331 
L 444.268778 259.397819 
L 444.842475 258.885178 
L 445.505498 257.932545 
L 446.25511 256.408414 
L 447.180219 253.936923 
L 448.273374 250.31607 
L 449.879639 244.093985 
L 452.556869 233.661132 
L 453.56453 230.620511 
L 454.392564 228.753499 
L 455.047536 227.769964 
L 455.534503 227.366192 
L 455.93756 227.265261 
L 456.338153 227.379799 
L 456.815652 227.798206 
L 457.368369 228.667385 
L 457.994387 230.151684 
L 458.691579 232.427681 
L 459.533745 236.027587 
L 460.515269 241.263636 
L 461.777 249.268329 
L 466.594059 281.259486 
L 467.543303 285.562543 
L 468.346132 288.249539 
L 469.00772 289.792914 
L 469.597489 290.66112 
L 470.117306 291.035152 
L 470.568787 291.07375 
L 471.017176 290.870954 
L 471.525891 290.382328 
L 472.156277 289.457413 
L 473.090625 287.626043 
L 475.756906 282.068056 
L 476.465624 281.19853 
L 477.050419 280.821885 
L 477.514525 280.782711 
L 477.975365 280.989619 
L 478.489964 281.504764 
L 479.057038 282.407817 
L 479.731109 283.915581 
L 480.564058 286.354664 
L 481.82102 290.836817 
L 484.108184 299.050403 
L 484.990831 301.393232 
L 485.708891 302.748518 
L 486.318167 303.453188 
L 486.821602 303.717639 
L 487.27141 303.727041 
L 487.767599 303.509879 
L 488.358106 302.976273 
L 489.137257 301.92353 
L 491.700497 298.171165 
L 492.256735 297.804208 
L 492.762503 297.726943 
L 493.218928 297.883164 
L 493.717348 298.316364 
L 494.256788 299.104748 
L 494.9249 300.503127 
L 495.761507 302.807392 
L 497.061087 307.14578 
L 498.796479 312.795253 
L 499.667844 314.933875 
L 500.405612 316.207326 
L 501.014133 316.852855 
L 501.577029 317.142661 
L 502.13513 317.179343 
L 502.767189 316.981266 
L 503.742731 316.395443 
L 504.970589 315.71507 
L 505.613645 315.593209 
L 506.213161 315.702024 
L 506.807239 316.039087 
L 507.469199 316.685464 
L 508.341531 317.88211 
L 511.306325 322.280132 
L 512.027019 322.829229 
L 512.706098 323.073281 
L 513.411635 323.079034 
L 514.373619 322.832329 
L 515.838929 322.460086 
L 516.575394 322.517057 
L 517.272174 322.804485 
L 518.023937 323.367228 
L 519.043721 324.448462 
L 521.18541 326.787345 
L 522.040431 327.347956 
L 522.826575 327.606858 
L 523.746245 327.662892 
L 526.293114 327.676536 
L 527.300984 328.012486 
L 529.061179 328.906647 
L 529.35 329.043897 
L 529.35 329.043897 
" clip-path="url(#p9ed4d79eb8)" style="fill: none; stroke: #ff2c00; stroke-width: 2; stroke-linecap: square"/>
   </g>
   <g id="line2d_99">
    <path d="M -1 331.99108 
L 16.90118 331.99108 
L 62.3 294.695079 
L 88.856607 296.663563 
L 122.313975 299.938988 
L 134.255427 300.900825 
L 144.35178 301.52755 
L 153.09764 301.89078 
L 160.812034 302.054241 
L 167.712795 302.085527 
L 179.654247 301.826712 
L 189.7506 301.305776 
L 198.496459 300.604738 
L 206.210854 299.783569 
L 213.111615 298.87188 
L 222.265554 297.372051 
L 230.295596 295.747352 
L 237.447784 294.030346 
L 243.895279 292.224947 
L 249.764575 290.357225 
L 255.150896 288.430878 
L 260.127718 286.419984 
L 266.224829 283.677113 
L 270.451886 281.559318 
L 274.422596 279.358457 
L 279.368088 276.341989 
L 283.966232 273.225179 
L 288.262634 269.975332 
L 292.29447 266.598148 
L 296.092441 263.092922 
L 299.682197 259.457924 
L 303.085386 255.683899 
L 306.320446 251.771599 
L 309.403211 247.716577 
L 312.347376 243.524766 
L 315.850706 238.096383 
L 319.176123 232.471344 
L 322.340828 226.665606 
L 325.359641 220.697864 
L 328.80763 213.359288 
L 332.083145 205.871186 
L 335.708391 197.033646 
L 339.619801 186.920279 
L 344.642911 173.300723 
L 353.278784 149.8007 
L 356.290655 142.257995 
L 358.81701 136.495687 
L 360.907506 132.256163 
L 362.60002 129.260997 
L 364.249897 126.779627 
L 365.540513 125.177761 
L 366.806188 123.926511 
L 368.047868 123.034141 
L 368.96392 122.604164 
L 369.867337 122.380497 
L 370.758461 122.363497 
L 371.637624 122.552991 
L 372.505142 122.948258 
L 373.36132 123.548013 
L 374.485753 124.662467 
L 375.591208 126.130995 
L 376.678315 127.94582 
L 378.012305 130.68665 
L 379.319667 133.930536 
L 380.854815 138.447193 
L 382.354804 143.588511 
L 384.062448 150.287128 
L 385.961035 158.740792 
L 388.033158 169.06166 
L 390.479837 182.431651 
L 394.089966 203.594905 
L 398.677604 230.37726 
L 400.949392 242.301488 
L 402.784152 250.798295 
L 404.392609 257.166453 
L 405.616881 261.214404 
L 406.818688 264.455137 
L 407.831543 266.593702 
L 408.828973 268.153521 
L 409.648717 269.02459 
L 410.297204 269.451439 
L 410.939333 269.64863 
L 411.575228 269.626764 
L 412.205008 269.394953 
L 412.983812 268.825052 
L 413.753464 267.965045 
L 414.665265 266.587361 
L 415.713234 264.571148 
L 417.036444 261.486112 
L 418.760139 256.859545 
L 423.80608 242.829077 
L 425.10566 240.139854 
L 426.127071 238.502142 
L 427.007923 237.483498 
L 427.753623 236.943881 
L 428.36862 236.742192 
L 428.977895 236.762688 
L 429.581556 236.997381 
L 430.298679 237.548729 
L 431.008036 238.376992 
L 431.826025 239.665303 
L 432.862933 241.772179 
L 433.996121 244.600633 
L 435.550352 249.139138 
L 439.385398 260.64658 
L 440.513794 263.295688 
L 441.422783 264.927459 
L 442.220316 265.905588 
L 442.91028 266.388978 
L 443.495947 266.524983 
L 444.076423 266.403599 
L 444.6518 266.025196 
L 445.316747 265.260851 
L 446.06851 263.982637 
L 446.904056 262.089447 
L 447.911013 259.239798 
L 449.259653 254.708156 
L 452.978614 241.784918 
L 453.897001 239.519849 
L 454.638947 238.192924 
L 455.210261 237.536014 
L 455.696023 237.262514 
L 456.098091 237.249416 
L 456.497706 237.430442 
L 456.974047 237.900591 
L 457.525436 238.79176 
L 458.149961 240.251186 
L 458.922337 242.713652 
L 459.76156 246.175195 
L 460.814341 251.513295 
L 462.216577 259.873758 
L 466.045393 283.399074 
L 467.138168 288.447984 
L 468.012815 291.500804 
L 468.743886 293.317298 
L 469.401489 294.380816 
L 469.922858 294.844435 
L 470.375676 294.980851 
L 470.825385 294.887733 
L 471.335585 294.534275 
L 471.967797 293.784523 
L 472.780654 292.438642 
L 474.316042 289.345401 
L 475.459329 287.252392 
L 476.230236 286.251709 
L 476.875528 285.760606 
L 477.398806 285.643662 
L 477.860459 285.775766 
L 478.375958 286.182926 
L 478.944015 286.938694 
L 479.619245 288.235821 
L 480.453608 290.376726 
L 481.604144 294.016574 
L 484.212644 302.467815 
L 485.093895 304.510304 
L 485.810832 305.664954 
L 486.368685 306.204406 
L 486.871734 306.418467 
L 487.370949 306.393969 
L 487.915725 306.122958 
L 488.553764 305.52658 
L 489.427066 304.37143 
L 491.420596 301.647206 
L 492.071847 301.139275 
L 492.624953 300.983718 
L 493.127897 301.084624 
L 493.627008 301.430725 
L 494.16719 302.095732 
L 494.836211 303.309302 
L 495.673945 305.344372 
L 496.889292 308.96954 
L 498.796479 314.621978 
L 499.70905 316.633705 
L 500.446356 317.758955 
L 501.0545 318.320717 
L 501.617052 318.565106 
L 502.214471 318.577607 
L 502.885024 318.357066 
L 504.205879 317.611949 
L 505.160379 317.209712 
L 505.801584 317.162822 
L 506.436572 317.341798 
L 507.065463 317.756413 
L 507.834083 318.558552 
L 508.916697 320.062936 
L 510.786645 322.680418 
L 511.616165 323.45089 
L 512.333476 323.830309 
L 513.009402 323.948271 
L 513.811412 323.856277 
L 516.352128 323.379597 
L 517.082877 323.587476 
L 517.836803 324.040278 
L 518.797955 324.910205 
L 521.422395 327.450094 
L 522.274348 327.882151 
L 523.115361 328.06071 
L 524.229617 328.047712 
L 525.935283 328.029705 
L 526.975803 328.271287 
L 528.293579 328.838304 
L 529.35 329.324358 
L 529.35 329.324358 
" clip-path="url(#p9ed4d79eb8)" style="fill: none; stroke: #845b97; stroke-width: 2; stroke-linecap: square"/>
   </g>
   <g id="patch_3">
    <path d="M 62.3 347.62875 
L 62.3 3.6 
" style="fill: none; stroke: #000000; stroke-linejoin: miter; stroke-linecap: square"/>
   </g>
   <g id="patch_4">
    <path d="M 529.35 347.62875 
L 529.35 3.6 
" style="fill: none; stroke: #000000; stroke-linejoin: miter; stroke-linecap: square"/>
   </g>
   <g id="patch_5">
    <path d="M 62.3 347.62875 
L 529.35 347.62875 
" style="fill: none; stroke: #000000; stroke-linejoin: miter; stroke-linecap: square"/>
   </g>
   <g id="patch_6">
    <path d="M 62.3 3.6 
L 529.35 3.6 
" style="fill: none; stroke: #000000; stroke-linejoin: miter; stroke-linecap: square"/>
   </g>
   <g id="legend_1">
    <g id="line2d_100">
     <path d="M 405.51 23.6 
L 421.51 23.6 
L 437.51 23.6 
" style="fill: none; stroke: #0c5da5; stroke-width: 2; stroke-linecap: square"/>
    </g>
    <g id="text_11">
     <!-- $\tau$ = 0.005 -->
     <g transform="translate(450.31 29.2) scale(0.16 -0.16)">
      <defs>
       <path id="DejaVuSans-Oblique-3c4" d="M 2103 638 
Q 2188 488 2525 488 
L 2800 488 
L 2706 0 
L 2363 0 
Q 1800 0 1600 300 
Q 1403 606 1534 1269 
L 1856 2925 
L 541 2925 
L 653 3500 
L 3881 3500 
L 3769 2925 
L 2444 2925 
L 2113 1234 
Q 2025 781 2103 638 
z
" transform="scale(0.015625)"/>
       <path id="STIXGeneral-Regular-3d" d="M 4077 2048 
L 307 2048 
L 307 2470 
L 4077 2470 
L 4077 2048 
z
M 4077 768 
L 307 768 
L 307 1190 
L 4077 1190 
L 4077 768 
z
" transform="scale(0.015625)"/>
       <path id="STIXGeneral-Regular-2e" d="M 1158 275 
Q 1158 134 1052 32 
Q 947 -70 800 -70 
Q 653 -70 550 32 
Q 448 134 448 281 
Q 448 429 553 534 
Q 659 640 806 640 
Q 947 640 1052 531 
Q 1158 422 1158 275 
z
" transform="scale(0.015625)"/>
       <path id="STIXGeneral-Regular-35" d="M 2803 4358 
L 2573 3814 
Q 2534 3731 2400 3731 
L 1158 3731 
L 902 3187 
Q 1606 3053 1920 2896 
Q 2234 2739 2502 2368 
Q 2726 2061 2726 1555 
Q 2726 1094 2576 780 
Q 2426 467 2099 224 
Q 1664 -90 1011 -90 
Q 646 -90 422 19 
Q 198 128 198 307 
Q 198 550 486 550 
Q 717 550 960 352 
Q 1210 147 1414 147 
Q 1747 147 2012 480 
Q 2278 813 2278 1229 
Q 2278 1843 1850 2189 
Q 1293 2637 486 2637 
Q 410 2637 410 2688 
L 416 2720 
L 1114 4237 
L 2438 4237 
Q 2547 4237 2608 4269 
Q 2669 4301 2746 4403 
L 2803 4358 
z
" transform="scale(0.015625)"/>
      </defs>
      <use xlink:href="#DejaVuSans-Oblique-3c4" transform="translate(0 0.203125)"/>
      <use xlink:href="#STIXGeneral-Regular-20" transform="translate(60.205078 0.203125)"/>
      <use xlink:href="#STIXGeneral-Regular-3d" transform="translate(85.205063 0.203125)"/>
      <use xlink:href="#STIXGeneral-Regular-20" transform="translate(153.705048 0.203125)"/>
      <use xlink:href="#STIXGeneral-Regular-30" transform="translate(178.705032 0.203125)"/>
      <use xlink:href="#STIXGeneral-Regular-2e" transform="translate(228.705017 0.203125)"/>
      <use xlink:href="#STIXGeneral-Regular-30" transform="translate(253.705002 0.203125)"/>
      <use xlink:href="#STIXGeneral-Regular-30" transform="translate(303.704987 0.203125)"/>
      <use xlink:href="#STIXGeneral-Regular-35" transform="translate(353.704971 0.203125)"/>
     </g>
    </g>
    <g id="line2d_101">
     <path d="M 405.51 46.2725 
L 421.51 46.2725 
L 437.51 46.2725 
" style="fill: none; stroke: #00b945; stroke-width: 2; stroke-linecap: square"/>
    </g>
    <g id="text_12">
     <!-- $\tau$ = 0.055 -->
     <g transform="translate(450.31 51.8725) scale(0.16 -0.16)">
      <use xlink:href="#DejaVuSans-Oblique-3c4" transform="translate(0 0.203125)"/>
      <use xlink:href="#STIXGeneral-Regular-20" transform="translate(60.205078 0.203125)"/>
      <use xlink:href="#STIXGeneral-Regular-3d" transform="translate(85.205063 0.203125)"/>
      <use xlink:href="#STIXGeneral-Regular-20" transform="translate(153.705048 0.203125)"/>
      <use xlink:href="#STIXGeneral-Regular-30" transform="translate(178.705032 0.203125)"/>
      <use xlink:href="#STIXGeneral-Regular-2e" transform="translate(228.705017 0.203125)"/>
      <use xlink:href="#STIXGeneral-Regular-30" transform="translate(253.705002 0.203125)"/>
      <use xlink:href="#STIXGeneral-Regular-35" transform="translate(303.704987 0.203125)"/>
      <use xlink:href="#STIXGeneral-Regular-35" transform="translate(353.704971 0.203125)"/>
     </g>
    </g>
    <g id="line2d_102">
     <path d="M 405.51 68.945 
L 421.51 68.945 
L 437.51 68.945 
" style="fill: none; stroke: #ff9500; stroke-width: 2; stroke-linecap: square"/>
    </g>
    <g id="text_13">
     <!-- $\tau$ = 0.105 -->
     <g transform="translate(450.31 74.545) scale(0.16 -0.16)">
      <use xlink:href="#DejaVuSans-Oblique-3c4" transform="translate(0 0.203125)"/>
      <use xlink:href="#STIXGeneral-Regular-20" transform="translate(60.205078 0.203125)"/>
      <use xlink:href="#STIXGeneral-Regular-3d" transform="translate(85.205063 0.203125)"/>
      <use xlink:href="#STIXGeneral-Regular-20" transform="translate(153.705048 0.203125)"/>
      <use xlink:href="#STIXGeneral-Regular-30" transform="translate(178.705032 0.203125)"/>
      <use xlink:href="#STIXGeneral-Regular-2e" transform="translate(228.705017 0.203125)"/>
      <use xlink:href="#STIXGeneral-Regular-31" transform="translate(253.705002 0.203125)"/>
      <use xlink:href="#STIXGeneral-Regular-30" transform="translate(303.704987 0.203125)"/>
      <use xlink:href="#STIXGeneral-Regular-35" transform="translate(353.704971 0.203125)"/>
     </g>
    </g>
    <g id="line2d_103">
     <path d="M 405.51 91.6175 
L 421.51 91.6175 
L 437.51 91.6175 
" style="fill: none; stroke: #ff2c00; stroke-width: 2; stroke-linecap: square"/>
    </g>
    <g id="text_14">
     <!-- $\tau$ = 0.155 -->
     <g transform="translate(450.31 97.2175) scale(0.16 -0.16)">
      <use xlink:href="#DejaVuSans-Oblique-3c4" transform="translate(0 0.203125)"/>
      <use xlink:href="#STIXGeneral-Regular-20" transform="translate(60.205078 0.203125)"/>
      <use xlink:href="#STIXGeneral-Regular-3d" transform="translate(85.205063 0.203125)"/>
      <use xlink:href="#STIXGeneral-Regular-20" transform="translate(153.705048 0.203125)"/>
      <use xlink:href="#STIXGeneral-Regular-30" transform="translate(178.705032 0.203125)"/>
      <use xlink:href="#STIXGeneral-Regular-2e" transform="translate(228.705017 0.203125)"/>
      <use xlink:href="#STIXGeneral-Regular-31" transform="translate(253.705002 0.203125)"/>
      <use xlink:href="#STIXGeneral-Regular-35" transform="translate(303.704987 0.203125)"/>
      <use xlink:href="#STIXGeneral-Regular-35" transform="translate(353.704971 0.203125)"/>
     </g>
    </g>
    <g id="line2d_104">
     <path d="M 405.51 114.29 
L 421.51 114.29 
L 437.51 114.29 
" style="fill: none; stroke: #845b97; stroke-width: 2; stroke-linecap: square"/>
    </g>
    <g id="text_15">
     <!-- $\tau$ = 0.205 -->
     <g transform="translate(450.31 119.89) scale(0.16 -0.16)">
      <use xlink:href="#DejaVuSans-Oblique-3c4" transform="translate(0 0.203125)"/>
      <use xlink:href="#STIXGeneral-Regular-20" transform="translate(60.205078 0.203125)"/>
      <use xlink:href="#STIXGeneral-Regular-3d" transform="translate(85.205063 0.203125)"/>
      <use xlink:href="#STIXGeneral-Regular-20" transform="translate(153.705048 0.203125)"/>
      <use xlink:href="#STIXGeneral-Regular-30" transform="translate(178.705032 0.203125)"/>
      <use xlink:href="#STIXGeneral-Regular-2e" transform="translate(228.705017 0.203125)"/>
      <use xlink:href="#STIXGeneral-Regular-32" transform="translate(253.705002 0.203125)"/>
      <use xlink:href="#STIXGeneral-Regular-30" transform="translate(303.704987 0.203125)"/>
      <use xlink:href="#STIXGeneral-Regular-35" transform="translate(353.704971 0.203125)"/>
     </g>
    </g>
   </g>
  </g>
 </g>
 <defs>
  <clipPath id="p9ed4d79eb8">
   <rect x="62.3" y="3.6" width="467.05" height="344.02875"/>
  </clipPath>
 </defs>
</svg>
