<?xml version="1.0" encoding="utf-8" standalone="no"?>
<!DOCTYPE svg PUBLIC "-//W3C//DTD SVG 1.1//EN"
  "http://www.w3.org/Graphics/SVG/1.1/DTD/svg11.dtd">
<svg xmlns:xlink="http://www.w3.org/1999/xlink" width="533.03pt" height="388.64875pt" viewBox="0 0 533.03 388.64875" xmlns="http://www.w3.org/2000/svg" version="1.1">
 <metadata>
  <rdf:RDF xmlns:dc="http://purl.org/dc/elements/1.1/" xmlns:cc="http://creativecommons.org/ns#" xmlns:rdf="http://www.w3.org/1999/02/22-rdf-syntax-ns#">
   <cc:Work>
    <dc:type rdf:resource="http://purl.org/dc/dcmitype/StillImage"/>
    <dc:date>2024-01-04T23:57:21.174706</dc:date>
    <dc:format>image/svg+xml</dc:format>
    <dc:creator>
     <cc:Agent>
      <dc:title>Matplotlib v3.8.2, https://matplotlib.org/</dc:title>
     </cc:Agent>
    </dc:creator>
   </cc:Work>
  </rdf:RDF>
 </metadata>
 <defs>
  <style type="text/css">*{stroke-linejoin: round; stroke-linecap: butt}</style>
 </defs>
 <g id="figure_1">
  <g id="patch_1">
   <path d="M 0 388.64875 
L 533.03 388.64875 
L 533.03 0 
L 0 0 
z
" style="fill: #ffffff"/>
  </g>
  <g id="axes_1">
   <g id="patch_2">
    <path d="M 70.3 347.62875 
L 529.43 347.62875 
L 529.43 3.6 
L 70.3 3.6 
z
" style="fill: #ffffff"/>
   </g>
   <g id="matplotlib.axis_1">
    <g id="xtick_1">
     <g id="line2d_1">
      <defs>
       <path id="m20e85bcb27" d="M 0 0 
L 0 -6 
" style="stroke: #000000"/>
      </defs>
      <g>
       <use xlink:href="#m20e85bcb27" x="173.925258" y="347.62875" style="stroke: #000000"/>
      </g>
     </g>
     <g id="line2d_2">
      <defs>
       <path id="m55ee180ae6" d="M 0 0 
L 0 6 
" style="stroke: #000000"/>
      </defs>
      <g>
       <use xlink:href="#m55ee180ae6" x="173.925258" y="3.6" style="stroke: #000000"/>
      </g>
     </g>
     <g id="text_1">
      <!-- 10 -->
      <g transform="translate(165.925258 362.05625) scale(0.16 -0.16)">
       <defs>
        <path id="STIXGeneral-Regular-31" d="M 2522 0 
L 755 0 
L 755 96 
Q 1107 115 1235 227 
Q 1363 339 1363 608 
L 1363 3482 
Q 1363 3795 1171 3795 
Q 1082 3795 883 3718 
L 710 3654 
L 710 3744 
L 1856 4326 
L 1914 4307 
L 1914 486 
Q 1914 275 2042 185 
Q 2170 96 2522 96 
L 2522 0 
z
" transform="scale(0.015625)"/>
        <path id="STIXGeneral-Regular-30" d="M 3046 2112 
Q 3046 1683 2963 1302 
Q 2880 922 2717 602 
Q 2554 282 2266 96 
Q 1978 -90 1600 -90 
Q 1210 -90 915 108 
Q 621 307 461 640 
Q 301 973 227 1350 
Q 154 1728 154 2150 
Q 154 2746 301 3222 
Q 448 3699 790 4012 
Q 1133 4326 1626 4326 
Q 2253 4326 2649 3712 
Q 3046 3098 3046 2112 
z
M 2432 2080 
Q 2432 3091 2217 3625 
Q 2003 4160 1587 4160 
Q 1190 4160 979 3622 
Q 768 3085 768 2106 
Q 768 1120 979 598 
Q 1190 77 1600 77 
Q 2003 77 2217 598 
Q 2432 1120 2432 2080 
z
" transform="scale(0.015625)"/>
       </defs>
       <use xlink:href="#STIXGeneral-Regular-31"/>
       <use xlink:href="#STIXGeneral-Regular-30" x="49.999985"/>
      </g>
     </g>
    </g>
    <g id="xtick_2">
     <g id="line2d_3">
      <g>
       <use xlink:href="#m20e85bcb27" x="322.179485" y="347.62875" style="stroke: #000000"/>
      </g>
     </g>
     <g id="line2d_4">
      <g>
       <use xlink:href="#m55ee180ae6" x="322.179485" y="3.6" style="stroke: #000000"/>
      </g>
     </g>
     <g id="text_2">
      <!-- 100 -->
      <g transform="translate(310.179485 362.05625) scale(0.16 -0.16)">
       <use xlink:href="#STIXGeneral-Regular-31"/>
       <use xlink:href="#STIXGeneral-Regular-30" x="49.999985"/>
       <use xlink:href="#STIXGeneral-Regular-30" x="99.999969"/>
      </g>
     </g>
    </g>
    <g id="xtick_3">
     <g id="line2d_5">
      <g>
       <use xlink:href="#m20e85bcb27" x="470.433712" y="347.62875" style="stroke: #000000"/>
      </g>
     </g>
     <g id="line2d_6">
      <g>
       <use xlink:href="#m55ee180ae6" x="470.433712" y="3.6" style="stroke: #000000"/>
      </g>
     </g>
     <g id="text_3">
      <!-- 1000 -->
      <g transform="translate(454.433712 362.05625) scale(0.16 -0.16)">
       <use xlink:href="#STIXGeneral-Regular-31"/>
       <use xlink:href="#STIXGeneral-Regular-30" x="49.999985"/>
       <use xlink:href="#STIXGeneral-Regular-30" x="99.999969"/>
       <use xlink:href="#STIXGeneral-Regular-30" x="149.999954"/>
      </g>
     </g>
    </g>
    <g id="xtick_4">
     <g id="line2d_7">
      <defs>
       <path id="m09bcc3725a" d="M 0 0 
L 0 -3 
" style="stroke: #000000"/>
      </defs>
      <g>
       <use xlink:href="#m09bcc3725a" x="70.3" y="347.62875" style="stroke: #000000"/>
      </g>
     </g>
     <g id="line2d_8">
      <defs>
       <path id="m368d551fb7" d="M 0 0 
L 0 3 
" style="stroke: #000000"/>
      </defs>
      <g>
       <use xlink:href="#m368d551fb7" x="70.3" y="3.6" style="stroke: #000000"/>
      </g>
     </g>
    </g>
    <g id="xtick_5">
     <g id="line2d_9">
      <g>
       <use xlink:href="#m09bcc3725a" x="96.406273" y="347.62875" style="stroke: #000000"/>
      </g>
     </g>
     <g id="line2d_10">
      <g>
       <use xlink:href="#m368d551fb7" x="96.406273" y="3.6" style="stroke: #000000"/>
      </g>
     </g>
    </g>
    <g id="xtick_6">
     <g id="line2d_11">
      <g>
       <use xlink:href="#m09bcc3725a" x="114.928969" y="347.62875" style="stroke: #000000"/>
      </g>
     </g>
     <g id="line2d_12">
      <g>
       <use xlink:href="#m368d551fb7" x="114.928969" y="3.6" style="stroke: #000000"/>
      </g>
     </g>
    </g>
    <g id="xtick_7">
     <g id="line2d_13">
      <g>
       <use xlink:href="#m09bcc3725a" x="129.296288" y="347.62875" style="stroke: #000000"/>
      </g>
     </g>
     <g id="line2d_14">
      <g>
       <use xlink:href="#m368d551fb7" x="129.296288" y="3.6" style="stroke: #000000"/>
      </g>
     </g>
    </g>
    <g id="xtick_8">
     <g id="line2d_15">
      <g>
       <use xlink:href="#m09bcc3725a" x="141.035243" y="347.62875" style="stroke: #000000"/>
      </g>
     </g>
     <g id="line2d_16">
      <g>
       <use xlink:href="#m368d551fb7" x="141.035243" y="3.6" style="stroke: #000000"/>
      </g>
     </g>
    </g>
    <g id="xtick_9">
     <g id="line2d_17">
      <g>
       <use xlink:href="#m09bcc3725a" x="150.960387" y="347.62875" style="stroke: #000000"/>
      </g>
     </g>
     <g id="line2d_18">
      <g>
       <use xlink:href="#m368d551fb7" x="150.960387" y="3.6" style="stroke: #000000"/>
      </g>
     </g>
    </g>
    <g id="xtick_10">
     <g id="line2d_19">
      <g>
       <use xlink:href="#m09bcc3725a" x="159.557939" y="347.62875" style="stroke: #000000"/>
      </g>
     </g>
     <g id="line2d_20">
      <g>
       <use xlink:href="#m368d551fb7" x="159.557939" y="3.6" style="stroke: #000000"/>
      </g>
     </g>
    </g>
    <g id="xtick_11">
     <g id="line2d_21">
      <g>
       <use xlink:href="#m09bcc3725a" x="167.141516" y="347.62875" style="stroke: #000000"/>
      </g>
     </g>
     <g id="line2d_22">
      <g>
       <use xlink:href="#m368d551fb7" x="167.141516" y="3.6" style="stroke: #000000"/>
      </g>
     </g>
    </g>
    <g id="xtick_12">
     <g id="line2d_23">
      <g>
       <use xlink:href="#m09bcc3725a" x="218.554227" y="347.62875" style="stroke: #000000"/>
      </g>
     </g>
     <g id="line2d_24">
      <g>
       <use xlink:href="#m368d551fb7" x="218.554227" y="3.6" style="stroke: #000000"/>
      </g>
     </g>
    </g>
    <g id="xtick_13">
     <g id="line2d_25">
      <g>
       <use xlink:href="#m09bcc3725a" x="244.6605" y="347.62875" style="stroke: #000000"/>
      </g>
     </g>
     <g id="line2d_26">
      <g>
       <use xlink:href="#m368d551fb7" x="244.6605" y="3.6" style="stroke: #000000"/>
      </g>
     </g>
    </g>
    <g id="xtick_14">
     <g id="line2d_27">
      <g>
       <use xlink:href="#m09bcc3725a" x="263.183196" y="347.62875" style="stroke: #000000"/>
      </g>
     </g>
     <g id="line2d_28">
      <g>
       <use xlink:href="#m368d551fb7" x="263.183196" y="3.6" style="stroke: #000000"/>
      </g>
     </g>
    </g>
    <g id="xtick_15">
     <g id="line2d_29">
      <g>
       <use xlink:href="#m09bcc3725a" x="277.550515" y="347.62875" style="stroke: #000000"/>
      </g>
     </g>
     <g id="line2d_30">
      <g>
       <use xlink:href="#m368d551fb7" x="277.550515" y="3.6" style="stroke: #000000"/>
      </g>
     </g>
    </g>
    <g id="xtick_16">
     <g id="line2d_31">
      <g>
       <use xlink:href="#m09bcc3725a" x="289.28947" y="347.62875" style="stroke: #000000"/>
      </g>
     </g>
     <g id="line2d_32">
      <g>
       <use xlink:href="#m368d551fb7" x="289.28947" y="3.6" style="stroke: #000000"/>
      </g>
     </g>
    </g>
    <g id="xtick_17">
     <g id="line2d_33">
      <g>
       <use xlink:href="#m09bcc3725a" x="299.214614" y="347.62875" style="stroke: #000000"/>
      </g>
     </g>
     <g id="line2d_34">
      <g>
       <use xlink:href="#m368d551fb7" x="299.214614" y="3.6" style="stroke: #000000"/>
      </g>
     </g>
    </g>
    <g id="xtick_18">
     <g id="line2d_35">
      <g>
       <use xlink:href="#m09bcc3725a" x="307.812166" y="347.62875" style="stroke: #000000"/>
      </g>
     </g>
     <g id="line2d_36">
      <g>
       <use xlink:href="#m368d551fb7" x="307.812166" y="3.6" style="stroke: #000000"/>
      </g>
     </g>
    </g>
    <g id="xtick_19">
     <g id="line2d_37">
      <g>
       <use xlink:href="#m09bcc3725a" x="315.395743" y="347.62875" style="stroke: #000000"/>
      </g>
     </g>
     <g id="line2d_38">
      <g>
       <use xlink:href="#m368d551fb7" x="315.395743" y="3.6" style="stroke: #000000"/>
      </g>
     </g>
    </g>
    <g id="xtick_20">
     <g id="line2d_39">
      <g>
       <use xlink:href="#m09bcc3725a" x="366.808454" y="347.62875" style="stroke: #000000"/>
      </g>
     </g>
     <g id="line2d_40">
      <g>
       <use xlink:href="#m368d551fb7" x="366.808454" y="3.6" style="stroke: #000000"/>
      </g>
     </g>
    </g>
    <g id="xtick_21">
     <g id="line2d_41">
      <g>
       <use xlink:href="#m09bcc3725a" x="392.914727" y="347.62875" style="stroke: #000000"/>
      </g>
     </g>
     <g id="line2d_42">
      <g>
       <use xlink:href="#m368d551fb7" x="392.914727" y="3.6" style="stroke: #000000"/>
      </g>
     </g>
    </g>
    <g id="xtick_22">
     <g id="line2d_43">
      <g>
       <use xlink:href="#m09bcc3725a" x="411.437423" y="347.62875" style="stroke: #000000"/>
      </g>
     </g>
     <g id="line2d_44">
      <g>
       <use xlink:href="#m368d551fb7" x="411.437423" y="3.6" style="stroke: #000000"/>
      </g>
     </g>
    </g>
    <g id="xtick_23">
     <g id="line2d_45">
      <g>
       <use xlink:href="#m09bcc3725a" x="425.804742" y="347.62875" style="stroke: #000000"/>
      </g>
     </g>
     <g id="line2d_46">
      <g>
       <use xlink:href="#m368d551fb7" x="425.804742" y="3.6" style="stroke: #000000"/>
      </g>
     </g>
    </g>
    <g id="xtick_24">
     <g id="line2d_47">
      <g>
       <use xlink:href="#m09bcc3725a" x="437.543697" y="347.62875" style="stroke: #000000"/>
      </g>
     </g>
     <g id="line2d_48">
      <g>
       <use xlink:href="#m368d551fb7" x="437.543697" y="3.6" style="stroke: #000000"/>
      </g>
     </g>
    </g>
    <g id="xtick_25">
     <g id="line2d_49">
      <g>
       <use xlink:href="#m09bcc3725a" x="447.468841" y="347.62875" style="stroke: #000000"/>
      </g>
     </g>
     <g id="line2d_50">
      <g>
       <use xlink:href="#m368d551fb7" x="447.468841" y="3.6" style="stroke: #000000"/>
      </g>
     </g>
    </g>
    <g id="xtick_26">
     <g id="line2d_51">
      <g>
       <use xlink:href="#m09bcc3725a" x="456.066393" y="347.62875" style="stroke: #000000"/>
      </g>
     </g>
     <g id="line2d_52">
      <g>
       <use xlink:href="#m368d551fb7" x="456.066393" y="3.6" style="stroke: #000000"/>
      </g>
     </g>
    </g>
    <g id="xtick_27">
     <g id="line2d_53">
      <g>
       <use xlink:href="#m09bcc3725a" x="463.64997" y="347.62875" style="stroke: #000000"/>
      </g>
     </g>
     <g id="line2d_54">
      <g>
       <use xlink:href="#m368d551fb7" x="463.64997" y="3.6" style="stroke: #000000"/>
      </g>
     </g>
    </g>
    <g id="xtick_28">
     <g id="line2d_55">
      <g>
       <use xlink:href="#m09bcc3725a" x="515.062681" y="347.62875" style="stroke: #000000"/>
      </g>
     </g>
     <g id="line2d_56">
      <g>
       <use xlink:href="#m368d551fb7" x="515.062681" y="3.6" style="stroke: #000000"/>
      </g>
     </g>
    </g>
    <g id="text_4">
     <!-- multipole moment $\ell$ -->
     <g transform="translate(235.625 381.52875) scale(0.16 -0.16)">
      <defs>
       <path id="STIXGeneral-Regular-6d" d="M 4960 0 
L 3565 0 
L 3565 96 
Q 3834 122 3907 208 
Q 3981 294 3981 576 
L 3981 1894 
Q 3981 2278 3869 2444 
Q 3757 2611 3488 2611 
Q 3264 2611 3107 2521 
Q 2950 2432 2803 2221 
L 2803 608 
Q 2803 301 2896 201 
Q 2989 102 3264 96 
L 3264 0 
L 1830 0 
L 1830 96 
Q 2112 115 2189 188 
Q 2266 262 2266 550 
L 2266 1901 
Q 2266 2611 1850 2611 
Q 1670 2611 1468 2531 
Q 1267 2451 1171 2336 
Q 1088 2240 1088 2227 
L 1088 448 
Q 1088 243 1177 176 
Q 1267 109 1523 96 
L 1523 0 
L 102 0 
L 102 96 
Q 371 102 460 195 
Q 550 288 550 563 
L 550 2150 
Q 550 2387 499 2480 
Q 448 2573 326 2573 
Q 230 2573 122 2547 
L 122 2656 
Q 557 2778 1011 2944 
L 1062 2925 
L 1062 2451 
L 1075 2451 
Q 1363 2752 1584 2848 
Q 1805 2944 2054 2944 
Q 2560 2944 2733 2406 
Q 3232 2944 3776 2944 
Q 4518 2944 4518 1792 
L 4518 493 
Q 4518 282 4582 202 
Q 4646 122 4794 109 
L 4960 96 
L 4960 0 
z
" transform="scale(0.015625)"/>
       <path id="STIXGeneral-Regular-75" d="M 3072 320 
L 3072 230 
Q 2573 96 2195 -58 
L 2163 -38 
L 2163 486 
L 2150 486 
Q 1747 -64 1235 -64 
Q 870 -64 662 160 
Q 454 384 454 755 
L 454 2362 
Q 454 2598 371 2688 
Q 288 2778 58 2790 
L 58 2880 
L 992 2880 
L 992 813 
Q 992 595 1123 451 
Q 1254 307 1446 307 
Q 1760 307 1984 506 
Q 2067 582 2099 649 
Q 2131 717 2131 877 
L 2131 2355 
Q 2131 2605 2041 2678 
Q 1952 2752 1658 2771 
L 1658 2880 
L 2669 2880 
L 2669 685 
Q 2669 461 2742 390 
Q 2816 320 3034 320 
L 3072 320 
z
" transform="scale(0.015625)"/>
       <path id="STIXGeneral-Regular-6c" d="M 1645 0 
L 134 0 
L 134 96 
Q 435 122 531 221 
Q 627 320 627 589 
L 627 3590 
Q 627 3821 569 3910 
Q 512 4000 358 4000 
Q 224 4000 122 3987 
L 122 4090 
Q 730 4237 1133 4371 
L 1165 4346 
L 1165 557 
Q 1165 288 1254 201 
Q 1344 115 1645 96 
L 1645 0 
z
" transform="scale(0.015625)"/>
       <path id="STIXGeneral-Regular-74" d="M 1702 493 
L 1786 422 
Q 1478 -64 1011 -64 
Q 448 -64 448 749 
L 448 2675 
L 109 2675 
Q 83 2694 83 2720 
Q 83 2771 192 2842 
Q 435 2982 813 3526 
Q 826 3546 874 3606 
Q 922 3667 941 3706 
Q 986 3706 986 3622 
L 986 2880 
L 1632 2880 
L 1632 2675 
L 986 2675 
L 986 845 
Q 986 538 1062 403 
Q 1139 269 1318 269 
Q 1510 269 1702 493 
z
" transform="scale(0.015625)"/>
       <path id="STIXGeneral-Regular-69" d="M 1152 4045 
Q 1152 3904 1056 3811 
Q 960 3718 819 3718 
Q 685 3718 592 3811 
Q 499 3904 499 4045 
Q 499 4179 595 4275 
Q 691 4371 826 4371 
Q 966 4371 1059 4275 
Q 1152 4179 1152 4045 
z
M 1619 0 
L 102 0 
L 102 96 
Q 435 115 521 211 
Q 608 307 608 666 
L 608 2118 
Q 608 2342 563 2432 
Q 518 2522 397 2522 
Q 243 2522 128 2490 
L 128 2592 
L 1120 2944 
L 1146 2918 
L 1146 672 
Q 1146 314 1226 218 
Q 1306 122 1619 96 
L 1619 0 
z
" transform="scale(0.015625)"/>
       <path id="STIXGeneral-Regular-70" d="M 1018 2931 
L 1018 2438 
Q 1421 2944 1939 2944 
Q 2406 2944 2707 2560 
Q 3008 2176 3008 1581 
Q 3008 883 2621 409 
Q 2234 -64 1664 -64 
Q 1466 -64 1328 -6 
Q 1190 51 1018 211 
L 1018 -794 
Q 1018 -1094 1120 -1180 
Q 1222 -1267 1581 -1274 
L 1581 -1389 
L 32 -1389 
L 32 -1280 
Q 314 -1254 397 -1171 
Q 480 -1088 480 -838 
L 480 2157 
Q 480 2381 429 2451 
Q 378 2522 218 2522 
Q 115 2522 58 2515 
L 58 2618 
Q 506 2752 979 2944 
L 1018 2931 
z
M 1018 2138 
L 1018 563 
Q 1018 422 1238 281 
Q 1459 141 1683 141 
Q 2029 141 2243 467 
Q 2458 794 2458 1325 
Q 2458 1888 2243 2224 
Q 2029 2560 1670 2560 
Q 1446 2560 1232 2419 
Q 1018 2278 1018 2138 
z
" transform="scale(0.015625)"/>
       <path id="STIXGeneral-Regular-6f" d="M 3008 1478 
Q 3008 806 2608 371 
Q 2208 -64 1568 -64 
Q 979 -64 582 368 
Q 186 800 186 1459 
Q 186 2125 582 2534 
Q 979 2944 1626 2944 
Q 2221 2944 2614 2537 
Q 3008 2131 3008 1478 
z
M 2432 1306 
Q 2432 2035 2112 2445 
Q 1856 2765 1504 2765 
Q 1171 2765 966 2493 
Q 762 2221 762 1747 
Q 762 928 1101 435 
Q 1318 115 1677 115 
Q 2029 115 2230 432 
Q 2432 749 2432 1306 
z
" transform="scale(0.015625)"/>
       <path id="STIXGeneral-Regular-65" d="M 2611 1050 
L 2714 1005 
Q 2330 -64 1376 -64 
Q 813 -64 486 329 
Q 160 723 160 1389 
Q 160 2074 525 2509 
Q 890 2944 1485 2944 
Q 2061 2944 2374 2502 
Q 2560 2246 2592 1773 
L 621 1773 
Q 646 1370 700 1158 
Q 755 947 915 730 
Q 1184 378 1626 378 
Q 1939 378 2153 531 
Q 2368 685 2611 1050 
z
M 634 1978 
L 1939 1978 
Q 1882 2381 1750 2547 
Q 1619 2714 1312 2714 
Q 1043 2714 864 2525 
Q 685 2336 634 1978 
z
" transform="scale(0.015625)"/>
       <path id="STIXGeneral-Regular-20" transform="scale(0.015625)"/>
       <path id="STIXGeneral-Regular-6e" d="M 3104 0 
L 1773 0 
L 1779 96 
Q 2016 115 2096 233 
Q 2176 352 2176 672 
L 2176 1946 
Q 2176 2592 1709 2592 
Q 1549 2592 1408 2515 
Q 1267 2438 1050 2227 
L 1050 461 
Q 1050 269 1136 192 
Q 1222 115 1466 96 
L 1466 0 
L 115 0 
L 115 96 
Q 358 115 435 214 
Q 512 314 512 602 
L 512 2157 
Q 512 2394 467 2483 
Q 422 2573 288 2573 
Q 160 2573 102 2547 
L 102 2656 
Q 550 2784 979 2944 
L 1030 2925 
L 1030 2426 
L 1037 2426 
Q 1491 2944 1958 2944 
Q 2323 2944 2518 2688 
Q 2714 2432 2714 1958 
L 2714 544 
Q 2714 288 2790 205 
Q 2867 122 3104 96 
L 3104 0 
z
" transform="scale(0.015625)"/>
       <path id="DejaVuSans-Oblique-2113" d="M 950 838 
Q 1078 213 1350 213 
Q 1531 213 1766 572 
L 2181 572 
Q 1994 253 1775 88 
Q 1538 -91 1319 -91 
Q 831 -91 634 344 
L 400 0 
L -88 0 
Q 250 459 500 888 
Q 469 1131 469 1397 
Q 469 1872 566 2347 
Q 931 4131 1256 4497 
Q 1481 4750 1866 4750 
Q 2256 4750 2256 4209 
Q 2253 3966 2197 3675 
Q 1972 2484 950 838 
z
M 947 1656 
Q 1531 2744 1709 3613 
Q 1803 4072 1803 4191 
Q 1803 4406 1725 4406 
Q 1384 4134 1081 2516 
Q 997 2063 947 1656 
z
" transform="scale(0.015625)"/>
      </defs>
      <use xlink:href="#STIXGeneral-Regular-6d" transform="translate(0 0.78125)"/>
      <use xlink:href="#STIXGeneral-Regular-75" transform="translate(77.799988 0.78125)"/>
      <use xlink:href="#STIXGeneral-Regular-6c" transform="translate(127.799973 0.78125)"/>
      <use xlink:href="#STIXGeneral-Regular-74" transform="translate(155.59996 0.78125)"/>
      <use xlink:href="#STIXGeneral-Regular-69" transform="translate(183.399948 0.78125)"/>
      <use xlink:href="#STIXGeneral-Regular-70" transform="translate(211.199936 0.78125)"/>
      <use xlink:href="#STIXGeneral-Regular-6f" transform="translate(261.199921 0.78125)"/>
      <use xlink:href="#STIXGeneral-Regular-6c" transform="translate(311.199905 0.78125)"/>
      <use xlink:href="#STIXGeneral-Regular-65" transform="translate(338.999893 0.78125)"/>
      <use xlink:href="#STIXGeneral-Regular-20" transform="translate(383.399887 0.78125)"/>
      <use xlink:href="#STIXGeneral-Regular-6d" transform="translate(408.399872 0.78125)"/>
      <use xlink:href="#STIXGeneral-Regular-6f" transform="translate(486.19986 0.78125)"/>
      <use xlink:href="#STIXGeneral-Regular-6d" transform="translate(536.199844 0.78125)"/>
      <use xlink:href="#STIXGeneral-Regular-65" transform="translate(613.999832 0.78125)"/>
      <use xlink:href="#STIXGeneral-Regular-6e" transform="translate(658.399826 0.78125)"/>
      <use xlink:href="#STIXGeneral-Regular-74" transform="translate(708.399811 0.78125)"/>
      <use xlink:href="#STIXGeneral-Regular-20" transform="translate(736.199799 0.78125)"/>
      <use xlink:href="#DejaVuSans-Oblique-2113" transform="translate(761.199783 0.78125)"/>
     </g>
    </g>
   </g>
   <g id="matplotlib.axis_2">
    <g id="ytick_1">
     <g id="line2d_57">
      <defs>
       <path id="m20e4d136a0" d="M 0 0 
L 6 0 
" style="stroke: #000000"/>
      </defs>
      <g>
       <use xlink:href="#m20e4d136a0" x="70.3" y="331.99108" style="stroke: #000000"/>
      </g>
     </g>
     <g id="line2d_58">
      <defs>
       <path id="ma44dd54f43" d="M 0 0 
L -6 0 
" style="stroke: #000000"/>
      </defs>
      <g>
       <use xlink:href="#ma44dd54f43" x="529.43" y="331.99108" style="stroke: #000000"/>
      </g>
     </g>
     <g id="text_5">
      <!-- 0 -->
      <g transform="translate(58.8 337.45483) scale(0.16 -0.16)">
       <use xlink:href="#STIXGeneral-Regular-30"/>
      </g>
     </g>
    </g>
    <g id="ytick_2">
     <g id="line2d_59">
      <g>
       <use xlink:href="#m20e4d136a0" x="70.3" y="271.122178" style="stroke: #000000"/>
      </g>
     </g>
     <g id="line2d_60">
      <g>
       <use xlink:href="#ma44dd54f43" x="529.43" y="271.122178" style="stroke: #000000"/>
      </g>
     </g>
     <g id="text_6">
      <!-- 2000 -->
      <g transform="translate(34.8 276.585928) scale(0.16 -0.16)">
       <defs>
        <path id="STIXGeneral-Regular-32" d="M 3034 877 
L 2688 0 
L 186 0 
L 186 77 
L 1325 1286 
Q 1773 1754 1965 2144 
Q 2157 2534 2157 2950 
Q 2157 3379 1920 3616 
Q 1683 3853 1267 3853 
Q 922 3853 720 3673 
Q 518 3494 326 3021 
L 192 3053 
Q 301 3648 630 3987 
Q 960 4326 1523 4326 
Q 2054 4326 2380 4006 
Q 2707 3686 2707 3200 
Q 2707 2477 1888 1613 
L 832 486 
L 2330 486 
Q 2541 486 2665 569 
Q 2790 653 2944 915 
L 3034 877 
z
" transform="scale(0.015625)"/>
       </defs>
       <use xlink:href="#STIXGeneral-Regular-32"/>
       <use xlink:href="#STIXGeneral-Regular-30" x="49.999985"/>
       <use xlink:href="#STIXGeneral-Regular-30" x="99.999969"/>
       <use xlink:href="#STIXGeneral-Regular-30" x="149.999954"/>
      </g>
     </g>
    </g>
    <g id="ytick_3">
     <g id="line2d_61">
      <g>
       <use xlink:href="#m20e4d136a0" x="70.3" y="210.253276" style="stroke: #000000"/>
      </g>
     </g>
     <g id="line2d_62">
      <g>
       <use xlink:href="#ma44dd54f43" x="529.43" y="210.253276" style="stroke: #000000"/>
      </g>
     </g>
     <g id="text_7">
      <!-- 4000 -->
      <g transform="translate(34.8 215.717026) scale(0.16 -0.16)">
       <defs>
        <path id="STIXGeneral-Regular-34" d="M 3027 1069 
L 2368 1069 
L 2368 0 
L 1869 0 
L 1869 1069 
L 77 1069 
L 77 1478 
L 2086 4326 
L 2368 4326 
L 2368 1478 
L 3027 1478 
L 3027 1069 
z
M 1869 1478 
L 1869 3674 
L 333 1478 
L 1869 1478 
z
" transform="scale(0.015625)"/>
       </defs>
       <use xlink:href="#STIXGeneral-Regular-34"/>
       <use xlink:href="#STIXGeneral-Regular-30" x="49.999985"/>
       <use xlink:href="#STIXGeneral-Regular-30" x="99.999969"/>
       <use xlink:href="#STIXGeneral-Regular-30" x="149.999954"/>
      </g>
     </g>
    </g>
    <g id="ytick_4">
     <g id="line2d_63">
      <g>
       <use xlink:href="#m20e4d136a0" x="70.3" y="149.384374" style="stroke: #000000"/>
      </g>
     </g>
     <g id="line2d_64">
      <g>
       <use xlink:href="#ma44dd54f43" x="529.43" y="149.384374" style="stroke: #000000"/>
      </g>
     </g>
     <g id="text_8">
      <!-- 6000 -->
      <g transform="translate(34.8 154.848124) scale(0.16 -0.16)">
       <defs>
        <path id="STIXGeneral-Regular-36" d="M 2854 4378 
L 2867 4275 
Q 2112 4154 1606 3664 
Q 1101 3174 973 2451 
Q 1344 2739 1786 2739 
Q 2349 2739 2672 2380 
Q 2995 2022 2995 1402 
Q 2995 774 2669 378 
Q 2291 -90 1651 -90 
Q 870 -90 518 557 
Q 218 1107 218 1786 
Q 218 2835 915 3552 
Q 1312 3962 1731 4131 
Q 2150 4301 2854 4378 
z
M 2419 1203 
Q 2419 2445 1555 2445 
Q 1235 2445 1024 2275 
Q 813 2106 813 1702 
Q 813 954 1046 522 
Q 1280 90 1722 90 
Q 2061 90 2240 394 
Q 2419 698 2419 1203 
z
" transform="scale(0.015625)"/>
       </defs>
       <use xlink:href="#STIXGeneral-Regular-36"/>
       <use xlink:href="#STIXGeneral-Regular-30" x="49.999985"/>
       <use xlink:href="#STIXGeneral-Regular-30" x="99.999969"/>
       <use xlink:href="#STIXGeneral-Regular-30" x="149.999954"/>
      </g>
     </g>
    </g>
    <g id="ytick_5">
     <g id="line2d_65">
      <g>
       <use xlink:href="#m20e4d136a0" x="70.3" y="88.515472" style="stroke: #000000"/>
      </g>
     </g>
     <g id="line2d_66">
      <g>
       <use xlink:href="#ma44dd54f43" x="529.43" y="88.515472" style="stroke: #000000"/>
      </g>
     </g>
     <g id="text_9">
      <!-- 8000 -->
      <g transform="translate(34.8 93.979222) scale(0.16 -0.16)">
       <defs>
        <path id="STIXGeneral-Regular-38" d="M 2848 992 
Q 2848 499 2505 204 
Q 2163 -90 1587 -90 
Q 1050 -90 704 204 
Q 358 499 358 954 
Q 358 1293 524 1533 
Q 691 1773 1190 2125 
Q 710 2522 553 2765 
Q 397 3008 397 3328 
Q 397 3782 745 4054 
Q 1094 4326 1638 4326 
Q 2106 4326 2410 4060 
Q 2714 3795 2714 3411 
Q 2714 3059 2531 2848 
Q 2349 2637 1856 2374 
Q 2432 1990 2640 1689 
Q 2848 1389 2848 992 
z
M 2272 3411 
Q 2272 3744 2086 3945 
Q 1901 4147 1574 4147 
Q 1248 4147 1059 3977 
Q 870 3808 870 3513 
Q 870 3219 1059 2979 
Q 1248 2739 1670 2490 
Q 1997 2682 2134 2896 
Q 2272 3110 2272 3411 
z
M 1734 1741 
L 1357 1997 
Q 1075 1766 960 1545 
Q 845 1325 845 1011 
Q 845 576 1065 333 
Q 1286 90 1658 90 
Q 1971 90 2166 285 
Q 2362 480 2362 794 
Q 2362 1082 2214 1299 
Q 2067 1517 1734 1741 
z
" transform="scale(0.015625)"/>
       </defs>
       <use xlink:href="#STIXGeneral-Regular-38"/>
       <use xlink:href="#STIXGeneral-Regular-30" x="49.999985"/>
       <use xlink:href="#STIXGeneral-Regular-30" x="99.999969"/>
       <use xlink:href="#STIXGeneral-Regular-30" x="149.999954"/>
      </g>
     </g>
    </g>
    <g id="ytick_6">
     <g id="line2d_67">
      <g>
       <use xlink:href="#m20e4d136a0" x="70.3" y="27.64657" style="stroke: #000000"/>
      </g>
     </g>
     <g id="line2d_68">
      <g>
       <use xlink:href="#ma44dd54f43" x="529.43" y="27.64657" style="stroke: #000000"/>
      </g>
     </g>
     <g id="text_10">
      <!-- 10000 -->
      <g transform="translate(26.8 33.11032) scale(0.16 -0.16)">
       <use xlink:href="#STIXGeneral-Regular-31"/>
       <use xlink:href="#STIXGeneral-Regular-30" x="49.999985"/>
       <use xlink:href="#STIXGeneral-Regular-30" x="99.999969"/>
       <use xlink:href="#STIXGeneral-Regular-30" x="149.999954"/>
       <use xlink:href="#STIXGeneral-Regular-30" x="199.999939"/>
      </g>
     </g>
    </g>
    <g id="ytick_7">
     <g id="line2d_69">
      <defs>
       <path id="m6feb1506d7" d="M 0 0 
L 3 0 
" style="stroke: #000000"/>
      </defs>
      <g>
       <use xlink:href="#m6feb1506d7" x="70.3" y="347.208305" style="stroke: #000000"/>
      </g>
     </g>
     <g id="line2d_70">
      <defs>
       <path id="m3cfaf52bad" d="M 0 0 
L -3 0 
" style="stroke: #000000"/>
      </defs>
      <g>
       <use xlink:href="#m3cfaf52bad" x="529.43" y="347.208305" style="stroke: #000000"/>
      </g>
     </g>
    </g>
    <g id="ytick_8">
     <g id="line2d_71">
      <g>
       <use xlink:href="#m6feb1506d7" x="70.3" y="316.773854" style="stroke: #000000"/>
      </g>
     </g>
     <g id="line2d_72">
      <g>
       <use xlink:href="#m3cfaf52bad" x="529.43" y="316.773854" style="stroke: #000000"/>
      </g>
     </g>
    </g>
    <g id="ytick_9">
     <g id="line2d_73">
      <g>
       <use xlink:href="#m6feb1506d7" x="70.3" y="301.556629" style="stroke: #000000"/>
      </g>
     </g>
     <g id="line2d_74">
      <g>
       <use xlink:href="#m3cfaf52bad" x="529.43" y="301.556629" style="stroke: #000000"/>
      </g>
     </g>
    </g>
    <g id="ytick_10">
     <g id="line2d_75">
      <g>
       <use xlink:href="#m6feb1506d7" x="70.3" y="286.339403" style="stroke: #000000"/>
      </g>
     </g>
     <g id="line2d_76">
      <g>
       <use xlink:href="#m3cfaf52bad" x="529.43" y="286.339403" style="stroke: #000000"/>
      </g>
     </g>
    </g>
    <g id="ytick_11">
     <g id="line2d_77">
      <g>
       <use xlink:href="#m6feb1506d7" x="70.3" y="255.904952" style="stroke: #000000"/>
      </g>
     </g>
     <g id="line2d_78">
      <g>
       <use xlink:href="#m3cfaf52bad" x="529.43" y="255.904952" style="stroke: #000000"/>
      </g>
     </g>
    </g>
    <g id="ytick_12">
     <g id="line2d_79">
      <g>
       <use xlink:href="#m6feb1506d7" x="70.3" y="240.687727" style="stroke: #000000"/>
      </g>
     </g>
     <g id="line2d_80">
      <g>
       <use xlink:href="#m3cfaf52bad" x="529.43" y="240.687727" style="stroke: #000000"/>
      </g>
     </g>
    </g>
    <g id="ytick_13">
     <g id="line2d_81">
      <g>
       <use xlink:href="#m6feb1506d7" x="70.3" y="225.470501" style="stroke: #000000"/>
      </g>
     </g>
     <g id="line2d_82">
      <g>
       <use xlink:href="#m3cfaf52bad" x="529.43" y="225.470501" style="stroke: #000000"/>
      </g>
     </g>
    </g>
    <g id="ytick_14">
     <g id="line2d_83">
      <g>
       <use xlink:href="#m6feb1506d7" x="70.3" y="195.03605" style="stroke: #000000"/>
      </g>
     </g>
     <g id="line2d_84">
      <g>
       <use xlink:href="#m3cfaf52bad" x="529.43" y="195.03605" style="stroke: #000000"/>
      </g>
     </g>
    </g>
    <g id="ytick_15">
     <g id="line2d_85">
      <g>
       <use xlink:href="#m6feb1506d7" x="70.3" y="179.818825" style="stroke: #000000"/>
      </g>
     </g>
     <g id="line2d_86">
      <g>
       <use xlink:href="#m3cfaf52bad" x="529.43" y="179.818825" style="stroke: #000000"/>
      </g>
     </g>
    </g>
    <g id="ytick_16">
     <g id="line2d_87">
      <g>
       <use xlink:href="#m6feb1506d7" x="70.3" y="164.601599" style="stroke: #000000"/>
      </g>
     </g>
     <g id="line2d_88">
      <g>
       <use xlink:href="#m3cfaf52bad" x="529.43" y="164.601599" style="stroke: #000000"/>
      </g>
     </g>
    </g>
    <g id="ytick_17">
     <g id="line2d_89">
      <g>
       <use xlink:href="#m6feb1506d7" x="70.3" y="134.167148" style="stroke: #000000"/>
      </g>
     </g>
     <g id="line2d_90">
      <g>
       <use xlink:href="#m3cfaf52bad" x="529.43" y="134.167148" style="stroke: #000000"/>
      </g>
     </g>
    </g>
    <g id="ytick_18">
     <g id="line2d_91">
      <g>
       <use xlink:href="#m6feb1506d7" x="70.3" y="118.949923" style="stroke: #000000"/>
      </g>
     </g>
     <g id="line2d_92">
      <g>
       <use xlink:href="#m3cfaf52bad" x="529.43" y="118.949923" style="stroke: #000000"/>
      </g>
     </g>
    </g>
    <g id="ytick_19">
     <g id="line2d_93">
      <g>
       <use xlink:href="#m6feb1506d7" x="70.3" y="103.732697" style="stroke: #000000"/>
      </g>
     </g>
     <g id="line2d_94">
      <g>
       <use xlink:href="#m3cfaf52bad" x="529.43" y="103.732697" style="stroke: #000000"/>
      </g>
     </g>
    </g>
    <g id="ytick_20">
     <g id="line2d_95">
      <g>
       <use xlink:href="#m6feb1506d7" x="70.3" y="73.298246" style="stroke: #000000"/>
      </g>
     </g>
     <g id="line2d_96">
      <g>
       <use xlink:href="#m3cfaf52bad" x="529.43" y="73.298246" style="stroke: #000000"/>
      </g>
     </g>
    </g>
    <g id="ytick_21">
     <g id="line2d_97">
      <g>
       <use xlink:href="#m6feb1506d7" x="70.3" y="58.081021" style="stroke: #000000"/>
      </g>
     </g>
     <g id="line2d_98">
      <g>
       <use xlink:href="#m3cfaf52bad" x="529.43" y="58.081021" style="stroke: #000000"/>
      </g>
     </g>
    </g>
    <g id="ytick_22">
     <g id="line2d_99">
      <g>
       <use xlink:href="#m6feb1506d7" x="70.3" y="42.863796" style="stroke: #000000"/>
      </g>
     </g>
     <g id="line2d_100">
      <g>
       <use xlink:href="#m3cfaf52bad" x="529.43" y="42.863796" style="stroke: #000000"/>
      </g>
     </g>
    </g>
    <g id="ytick_23">
     <g id="line2d_101">
      <g>
       <use xlink:href="#m6feb1506d7" x="70.3" y="12.429345" style="stroke: #000000"/>
      </g>
     </g>
     <g id="line2d_102">
      <g>
       <use xlink:href="#m3cfaf52bad" x="529.43" y="12.429345" style="stroke: #000000"/>
      </g>
     </g>
    </g>
    <g id="text_11">
     <!-- $\ell(\ell+1)C_{\ell}^{TT}/2\pi[\mu K^2]$ -->
     <g transform="translate(18.16 249.854375) rotate(-90) scale(0.16 -0.16)">
      <defs>
       <path id="DejaVuSans-28" d="M 1984 4856 
Q 1566 4138 1362 3434 
Q 1159 2731 1159 2009 
Q 1159 1288 1364 580 
Q 1569 -128 1984 -844 
L 1484 -844 
Q 1016 -109 783 600 
Q 550 1309 550 2009 
Q 550 2706 781 3412 
Q 1013 4119 1484 4856 
L 1984 4856 
z
" transform="scale(0.015625)"/>
       <path id="DejaVuSans-2b" d="M 2944 4013 
L 2944 2272 
L 4684 2272 
L 4684 1741 
L 2944 1741 
L 2944 0 
L 2419 0 
L 2419 1741 
L 678 1741 
L 678 2272 
L 2419 2272 
L 2419 4013 
L 2944 4013 
z
" transform="scale(0.015625)"/>
       <path id="DejaVuSans-31" d="M 794 531 
L 1825 531 
L 1825 4091 
L 703 3866 
L 703 4441 
L 1819 4666 
L 2450 4666 
L 2450 531 
L 3481 531 
L 3481 0 
L 794 0 
L 794 531 
z
" transform="scale(0.015625)"/>
       <path id="DejaVuSans-29" d="M 513 4856 
L 1013 4856 
Q 1481 4119 1714 3412 
Q 1947 2706 1947 2009 
Q 1947 1309 1714 600 
Q 1481 -109 1013 -844 
L 513 -844 
Q 928 -128 1133 580 
Q 1338 1288 1338 2009 
Q 1338 2731 1133 3434 
Q 928 4138 513 4856 
z
" transform="scale(0.015625)"/>
       <path id="DejaVuSans-Oblique-43" d="M 4447 4306 
L 4319 3641 
Q 4019 3944 3683 4091 
Q 3347 4238 2956 4238 
Q 2422 4238 2017 3981 
Q 1613 3725 1319 3200 
Q 1131 2863 1032 2486 
Q 934 2109 934 1728 
Q 934 1091 1264 756 
Q 1594 422 2222 422 
Q 2656 422 3056 561 
Q 3456 700 3834 978 
L 3688 231 
Q 3316 72 2936 -9 
Q 2556 -91 2175 -91 
Q 1278 -91 773 396 
Q 269 884 269 1753 
Q 269 2309 461 2846 
Q 653 3384 1013 3828 
Q 1394 4300 1883 4525 
Q 2372 4750 3022 4750 
Q 3422 4750 3780 4639 
Q 4138 4528 4447 4306 
z
" transform="scale(0.015625)"/>
       <path id="DejaVuSans-Oblique-54" d="M 378 4666 
L 4325 4666 
L 4225 4134 
L 2559 4134 
L 1759 0 
L 1125 0 
L 1925 4134 
L 275 4134 
L 378 4666 
z
" transform="scale(0.015625)"/>
       <path id="DejaVuSans-2f" d="M 1625 4666 
L 2156 4666 
L 531 -594 
L 0 -594 
L 1625 4666 
z
" transform="scale(0.015625)"/>
       <path id="DejaVuSans-32" d="M 1228 531 
L 3431 531 
L 3431 0 
L 469 0 
L 469 531 
Q 828 903 1448 1529 
Q 2069 2156 2228 2338 
Q 2531 2678 2651 2914 
Q 2772 3150 2772 3378 
Q 2772 3750 2511 3984 
Q 2250 4219 1831 4219 
Q 1534 4219 1204 4116 
Q 875 4013 500 3803 
L 500 4441 
Q 881 4594 1212 4672 
Q 1544 4750 1819 4750 
Q 2544 4750 2975 4387 
Q 3406 4025 3406 3419 
Q 3406 3131 3298 2873 
Q 3191 2616 2906 2266 
Q 2828 2175 2409 1742 
Q 1991 1309 1228 531 
z
" transform="scale(0.015625)"/>
       <path id="DejaVuSans-Oblique-3c0" d="M 584 3500 
L 3938 3500 
L 3825 2925 
L 3384 2925 
L 2966 775 
Q 2922 550 2981 450 
Q 3038 353 3209 353 
Q 3256 353 3325 363 
Q 3397 369 3419 372 
L 3338 -44 
Q 3222 -84 3103 -103 
Q 2981 -122 2866 -122 
Q 2491 -122 2388 81 
Q 2284 288 2391 838 
L 2797 2925 
L 1506 2925 
L 938 0 
L 350 0 
L 919 2925 
L 472 2925 
L 584 3500 
z
" transform="scale(0.015625)"/>
       <path id="DejaVuSans-5b" d="M 550 4863 
L 1875 4863 
L 1875 4416 
L 1125 4416 
L 1125 -397 
L 1875 -397 
L 1875 -844 
L 550 -844 
L 550 4863 
z
" transform="scale(0.015625)"/>
       <path id="DejaVuSans-Oblique-3bc" d="M -84 -1331 
L 856 3500 
L 1434 3500 
L 1009 1322 
Q 997 1256 987 1175 
Q 978 1094 978 1013 
Q 978 722 1161 565 
Q 1344 409 1684 409 
Q 2147 409 2431 671 
Q 2716 934 2816 1459 
L 3213 3500 
L 3788 3500 
L 3266 809 
Q 3253 750 3248 706 
Q 3244 663 3244 628 
Q 3244 531 3283 486 
Q 3322 441 3406 441 
Q 3438 441 3492 456 
Q 3547 472 3647 513 
L 3559 50 
Q 3422 -19 3297 -55 
Q 3172 -91 3053 -91 
Q 2847 -91 2730 40 
Q 2613 172 2613 403 
Q 2438 153 2195 31 
Q 1953 -91 1625 -91 
Q 1334 -91 1117 43 
Q 900 178 831 397 
L 494 -1331 
L -84 -1331 
z
" transform="scale(0.015625)"/>
       <path id="DejaVuSans-Oblique-4b" d="M 1081 4666 
L 1716 4666 
L 1331 2700 
L 3781 4666 
L 4622 4666 
L 1850 2438 
L 3878 0 
L 3109 0 
L 1247 2272 
L 806 0 
L 172 0 
L 1081 4666 
z
" transform="scale(0.015625)"/>
       <path id="DejaVuSans-5d" d="M 1947 4863 
L 1947 -844 
L 622 -844 
L 622 -397 
L 1369 -397 
L 1369 4416 
L 622 4416 
L 622 4863 
L 1947 4863 
z
" transform="scale(0.015625)"/>
      </defs>
      <use xlink:href="#DejaVuSans-Oblique-2113" transform="translate(0 0.765625)"/>
      <use xlink:href="#DejaVuSans-28" transform="translate(41.308594 0.765625)"/>
      <use xlink:href="#DejaVuSans-Oblique-2113" transform="translate(80.322266 0.765625)"/>
      <use xlink:href="#DejaVuSans-2b" transform="translate(141.113281 0.765625)"/>
      <use xlink:href="#DejaVuSans-31" transform="translate(244.384766 0.765625)"/>
      <use xlink:href="#DejaVuSans-29" transform="translate(308.007812 0.765625)"/>
      <use xlink:href="#DejaVuSans-Oblique-43" transform="translate(347.021484 0.765625)"/>
      <use xlink:href="#DejaVuSans-Oblique-54" transform="translate(424.046224 39.046875) scale(0.7)"/>
      <use xlink:href="#DejaVuSans-Oblique-54" transform="translate(466.805013 39.046875) scale(0.7)"/>
      <use xlink:href="#DejaVuSans-Oblique-2113" transform="translate(416.845703 -26.578125) scale(0.7)"/>
      <use xlink:href="#DejaVuSans-2f" transform="translate(512.298177 0.765625)"/>
      <use xlink:href="#DejaVuSans-32" transform="translate(542.364583 0.765625)"/>
      <use xlink:href="#DejaVuSans-Oblique-3c0" transform="translate(605.98763 0.765625)"/>
      <use xlink:href="#DejaVuSans-5b" transform="translate(666.192708 0.765625)"/>
      <use xlink:href="#DejaVuSans-Oblique-3bc" transform="translate(705.20638 0.765625)"/>
      <use xlink:href="#DejaVuSans-Oblique-4b" transform="translate(768.829427 0.765625)"/>
      <use xlink:href="#DejaVuSans-32" transform="translate(841.42237 39.046875) scale(0.7)"/>
      <use xlink:href="#DejaVuSans-5d" transform="translate(888.692878 0.765625)"/>
     </g>
    </g>
   </g>
   <g id="line2d_103">
    <path d="M -1 331.99108 
L 25.671031 331.99108 
L 70.3 152.027683 
L 96.406273 173.530117 
L 114.928969 190.624174 
L 129.296288 203.334277 
L 141.035243 212.73679 
L 150.960387 219.805781 
L 159.557939 225.174242 
L 167.141516 229.306727 
L 173.925258 232.580898 
L 180.061898 235.142418 
L 185.664212 237.200475 
L 190.817841 238.868478 
L 195.589357 240.194591 
L 200.031531 241.248051 
L 204.186908 242.10409 
L 211.770486 243.285712 
L 218.554227 243.918246 
L 224.690868 244.130335 
L 230.293181 244.018897 
L 235.446811 243.636111 
L 240.218326 243.033538 
L 244.6605 242.241335 
L 248.815877 241.277057 
L 252.719254 240.177189 
L 256.399455 238.974737 
L 259.880627 237.644434 
L 263.183196 236.189017 
L 267.839634 233.835343 
L 272.181908 231.35172 
L 276.249744 228.66189 
L 280.07578 225.768403 
L 283.687156 222.752911 
L 287.106685 219.595069 
L 290.353725 216.275747 
L 293.444847 212.79226 
L 296.394339 209.170631 
L 299.214614 205.406531 
L 302.792534 200.179293 
L 306.182053 194.707915 
L 309.402024 189.001614 
L 312.468603 183.062995 
L 315.395743 176.90672 
L 318.195575 170.551113 
L 321.532384 162.343246 
L 324.704749 153.89094 
L 327.728121 145.224212 
L 331.178196 134.621962 
L 334.452766 123.87118 
L 338.574877 109.508177 
L 343.382033 91.861116 
L 353.240971 55.374119 
L 356.344511 44.903769 
L 358.577775 38.05957 
L 360.736167 32.171101 
L 362.481152 28.046219 
L 363.843869 25.289437 
L 365.178342 23.03629 
L 366.485716 21.297781 
L 367.449116 20.336999 
L 368.398312 19.673921 
L 369.333719 19.311317 
L 370.255729 19.251496 
L 371.164723 19.496187 
L 372.061062 20.04526 
L 372.945094 20.897032 
L 373.817153 22.049032 
L 374.677558 23.498 
L 375.807165 25.884751 
L 376.917296 28.780156 
L 378.278573 33.092155 
L 379.611664 38.142787 
L 381.175773 45.125132 
L 382.702785 53.039211 
L 384.4397 63.326824 
L 386.369012 76.268185 
L 388.472553 92.045507 
L 390.953581 112.559592 
L 394.189739 141.401814 
L 400.593621 198.923805 
L 402.839872 216.766387 
L 404.653682 229.483384 
L 406.24354 239.08588 
L 407.624526 246.074112 
L 408.809059 250.978795 
L 409.807311 254.294831 
L 410.790322 256.813387 
L 411.598187 258.326548 
L 412.396041 259.334353 
L 413.027282 259.797876 
L 413.652393 259.97567 
L 414.271494 259.88087 
L 414.884699 259.526941 
L 415.492118 258.929357 
L 416.243422 257.866663 
L 417.133565 256.180482 
L 418.156746 253.745799 
L 419.590792 249.668651 
L 421.546265 243.364303 
L 424.766236 232.933085 
L 426.061773 229.553421 
L 427.079754 227.436592 
L 427.957474 226.053274 
L 428.700397 225.242032 
L 429.313018 224.846112 
L 429.919865 224.717265 
L 430.521046 224.855487 
L 431.116665 225.250819 
L 431.824211 226.048052 
L 432.524066 227.175529 
L 433.445527 229.146475 
L 434.466647 231.919125 
L 435.693084 235.941906 
L 437.328718 242.140283 
L 440.582819 254.667386 
L 441.899966 258.799343 
L 442.895133 261.216044 
L 443.680337 262.576392 
L 444.359623 263.339114 
L 444.936218 263.675698 
L 445.4128 263.733646 
L 445.885881 263.590796 
L 446.449027 263.157116 
L 447.007291 262.443199 
L 447.744192 261.088694 
L 448.563247 259.085751 
L 449.639361 255.793446 
L 451.133711 250.403165 
L 453.855849 240.499915 
L 454.847694 237.768075 
L 455.662717 236.138835 
L 456.307388 235.325158 
L 456.786691 235.033098 
L 457.183402 235.014313 
L 457.577684 235.202115 
L 458.047656 235.69585 
L 458.591657 236.634123 
L 459.207796 238.170321 
L 459.969769 240.757731 
L 460.797654 244.398229 
L 461.83616 250.027605 
L 463.219293 258.87292 
L 467.198881 285.147684 
L 468.273125 290.417083 
L 469.13294 293.609372 
L 469.851614 295.523218 
L 470.498065 296.664162 
L 471.010593 297.185572 
L 471.455733 297.371723 
L 471.897816 297.328534 
L 472.399365 297.03313 
L 473.020856 296.358807 
L 473.819929 295.118724 
L 475.32928 292.254019 
L 476.45318 290.342464 
L 477.211014 289.460487 
L 477.787953 289.082408 
L 478.302815 289.001412 
L 478.757039 289.155713 
L 479.26424 289.578262 
L 479.82315 290.338484 
L 480.4875 291.622163 
L 481.308412 293.71937 
L 482.493794 297.443433 
L 485.006737 305.481177 
L 485.924368 307.585794 
L 486.629147 308.707818 
L 487.227164 309.277961 
L 487.770509 309.492889 
L 488.260511 309.460081 
L 488.795241 309.205025 
L 489.469446 308.611263 
L 490.467698 307.386173 
L 491.959693 305.582134 
L 492.647339 305.063135 
L 493.192216 304.901676 
L 493.687669 304.97016 
L 494.179338 305.25537 
L 494.711457 305.822664 
L 495.37048 306.881162 
L 496.195674 308.678037 
L 497.392792 311.916214 
L 499.394591 317.344287 
L 500.291687 319.137411 
L 501.01649 320.142041 
L 501.65398 320.672233 
L 502.245949 320.892124 
L 502.87144 320.887025 
L 503.644854 320.637684 
L 505.836608 319.787218 
L 506.538672 319.837207 
L 507.196797 320.108682 
L 507.920242 320.663794 
L 508.848731 321.682956 
L 511.590451 324.895317 
L 512.400773 325.396576 
L 513.134715 325.597382 
L 513.958708 325.581222 
L 515.543774 325.249987 
L 516.526785 325.187725 
L 517.308748 325.356216 
L 518.142735 325.774343 
L 519.177804 326.569135 
L 521.520449 328.450049 
L 522.445634 328.854147 
L 523.357713 329.012497 
L 524.702054 328.988682 
L 526.235779 329.019349 
L 527.41573 329.287202 
L 529.43 330.012264 
L 529.43 330.012264 
" clip-path="url(#p8f56e7a253)" style="fill: none; stroke: #0c5da5; stroke-width: 2; stroke-linecap: square"/>
   </g>
   <g id="line2d_104">
    <path d="M -1 331.99108 
L 25.671031 331.99108 
L 70.3 247.047694 
L 96.406273 254.214668 
L 114.928969 260.399155 
L 129.296288 265.077305 
L 141.035243 268.499109 
L 150.960387 271.001105 
L 159.557939 272.808757 
L 167.141516 274.101854 
L 173.925258 275.044511 
L 180.061898 275.682472 
L 185.664212 276.11407 
L 190.817841 276.383364 
L 200.031531 276.51183 
L 208.090284 276.282423 
L 215.251657 275.79316 
L 221.69563 275.087448 
L 227.552938 274.233944 
L 232.921546 273.239146 
L 237.876759 272.146133 
L 242.477715 270.955752 
L 246.771706 269.678671 
L 252.719254 267.63512 
L 258.163565 265.475679 
L 263.183196 263.161132 
L 267.839634 260.730424 
L 272.181908 258.238671 
L 276.249744 255.623223 
L 280.07578 252.879312 
L 283.687156 250.061211 
L 287.106685 247.151741 
L 290.353725 244.131389 
L 293.444847 240.99582 
L 296.394339 237.760296 
L 300.127906 233.283549 
L 303.656789 228.625687 
L 307.002268 223.775957 
L 310.18247 218.740338 
L 313.212958 213.514721 
L 316.107198 208.11182 
L 318.876915 202.537616 
L 322.179485 195.345498 
L 325.320888 187.932864 
L 328.316125 180.324174 
L 331.735654 170.993063 
L 334.982695 161.501117 
L 338.574877 150.349093 
L 342.91715 136.092872 
L 349.980224 111.949796 
L 354.811439 95.806577 
L 357.841928 86.403588 
L 360.381423 79.263457 
L 362.481152 74.040869 
L 364.180089 70.376959 
L 365.835347 67.376448 
L 367.129582 65.469099 
L 368.398312 64.01098 
L 369.333719 63.217581 
L 370.255729 62.685188 
L 371.164723 62.416597 
L 372.061062 62.412948 
L 372.945094 62.673994 
L 373.817153 63.198798 
L 374.677558 63.985727 
L 375.526616 65.032437 
L 376.641553 66.826723 
L 377.737511 69.06789 
L 378.815126 71.7443 
L 380.137267 75.681443 
L 381.432803 80.246793 
L 382.953803 86.501687 
L 384.4397 93.53088 
L 386.130986 102.591527 
L 388.011003 113.912547 
L 390.062411 127.620998 
L 392.699749 146.896756 
L 396.666429 177.822418 
L 400.593621 207.985563 
L 402.839872 223.589164 
L 404.653682 234.760397 
L 406.24354 243.211948 
L 407.624526 249.354981 
L 408.809059 253.650406 
L 409.807311 256.535989 
L 410.790322 258.702772 
L 411.598187 259.977606 
L 412.396041 260.79143 
L 413.027282 261.127674 
L 413.652393 261.199678 
L 414.271494 261.019007 
L 414.884699 260.59781 
L 415.643082 259.754561 
L 416.392636 258.588956 
L 417.280733 256.81608 
L 418.446122 253.937671 
L 420.014851 249.353433 
L 422.36648 241.646908 
L 424.766236 233.961077 
L 426.061773 230.514258 
L 427.205878 228.073737 
L 428.081891 226.655734 
L 428.823389 225.803154 
L 429.434846 225.365342 
L 430.040551 225.187468 
L 430.640612 225.267175 
L 431.235131 225.594949 
L 431.941383 226.300193 
L 432.639972 227.325087 
L 433.445527 228.891515 
L 434.466647 231.421981 
L 435.693084 235.153612 
L 437.328718 240.974972 
L 440.6851 253.19276 
L 441.899966 256.783276 
L 442.895133 259.060622 
L 443.680337 260.32005 
L 444.359623 261.000407 
L 444.936218 261.269555 
L 445.4128 261.272707 
L 445.885881 261.075613 
L 446.449027 260.576551 
L 447.099866 259.639363 
L 447.835714 258.137901 
L 448.743853 255.706196 
L 449.816978 252.157049 
L 451.480339 245.761257 
L 453.772501 236.984326 
L 454.847694 233.771206 
L 455.662717 231.981574 
L 456.307388 231.049084 
L 456.786691 230.675458 
L 457.183402 230.594697 
L 457.577684 230.726488 
L 458.047656 231.161356 
L 458.591657 232.043203 
L 459.207796 233.532256 
L 459.893976 235.799504 
L 460.72283 239.369713 
L 461.688824 244.55066 
L 463.002869 252.950843 
L 467.603826 283.719335 
L 468.605183 288.364574 
L 469.395205 291.074871 
L 470.110974 292.782488 
L 470.690742 293.649875 
L 471.201745 294.038645 
L 471.645569 294.102246 
L 472.086355 293.934938 
L 472.586443 293.498472 
L 473.20614 292.653878 
L 474.124643 290.967489 
L 476.745711 285.866235 
L 477.442411 285.090713 
L 478.017289 284.772911 
L 478.473525 284.765319 
L 478.926551 284.988717 
L 479.432423 285.504474 
L 480.045362 286.491409 
L 480.762301 288.119254 
L 481.687951 290.86182 
L 483.184125 296.152272 
L 484.903966 302.001215 
L 485.823052 304.355417 
L 486.528935 305.634662 
L 487.127879 306.306851 
L 487.622778 306.568287 
L 488.113901 306.583727 
L 488.601307 306.380443 
L 489.181365 305.890447 
L 489.99427 304.86822 
L 492.281508 301.785786 
L 492.874932 301.389834 
L 493.372822 301.29768 
L 493.866892 301.440889 
L 494.3572 301.83073 
L 494.931881 302.61441 
L 495.632212 304.004787 
L 496.497047 306.265137 
L 497.983107 310.916817 
L 499.43564 315.201414 
L 500.332168 317.182606 
L 501.056518 318.281982 
L 501.65398 318.825207 
L 502.245949 319.065692 
L 502.832524 319.057742 
L 503.529433 318.810663 
L 505.94797 317.7327 
L 506.575411 317.79956 
L 507.196797 318.091455 
L 507.884262 318.682471 
L 508.777782 319.784989 
L 511.692301 323.670128 
L 512.434316 324.17193 
L 513.134715 324.383368 
L 513.893176 324.367726 
L 515.062681 324.077195 
L 516.211322 323.86668 
L 516.965854 323.948415 
L 517.711646 324.263738 
L 518.540464 324.87542 
L 519.808897 326.139267 
L 521.287061 327.53344 
L 522.186767 328.077439 
L 523.017196 328.325872 
L 524.00538 328.374125 
L 526.39796 328.39175 
L 527.468854 328.703608 
L 529.43 329.555417 
L 529.43 329.555417 
" clip-path="url(#p8f56e7a253)" style="fill: none; stroke: #00b945; stroke-width: 2; stroke-linecap: square"/>
   </g>
   <g id="line2d_105">
    <path d="M -1 331.99108 
L 25.671031 331.99108 
L 70.3 291.066096 
L 96.406273 293.192652 
L 129.296288 296.740888 
L 141.035243 297.778711 
L 150.960387 298.450644 
L 159.557939 298.834531 
L 167.141516 298.999881 
L 173.925258 299.020766 
L 185.664212 298.71079 
L 195.589357 298.114053 
L 204.186908 297.320173 
L 211.770486 296.394783 
L 218.554227 295.370316 
L 224.690868 294.264146 
L 230.293181 293.09547 
L 237.876759 291.241676 
L 244.6605 289.2876 
L 250.797141 287.243339 
L 256.399455 285.140246 
L 261.553084 282.958683 
L 266.324599 280.691228 
L 270.766774 278.393541 
L 274.922151 276.03185 
L 278.825527 273.578136 
L 283.687156 270.215665 
L 287.106685 267.62341 
L 290.353725 264.950397 
L 294.443099 261.255817 
L 298.288181 257.423294 
L 301.916521 253.446409 
L 305.351255 249.320426 
L 308.612002 245.039364 
L 311.715542 240.602128 
L 314.676339 236.007662 
L 317.506949 231.263645 
L 320.878713 225.125778 
L 324.082657 218.777774 
L 327.134698 212.233616 
L 330.615869 204.160994 
L 333.918439 195.891545 
L 337.568825 186.08386 
L 341.502017 174.796702 
L 346.102973 160.846377 
L 357.470826 125.883937 
L 360.381423 117.869037 
L 362.824545 111.836431 
L 364.847308 107.480764 
L 366.485716 104.467779 
L 368.083466 102.040159 
L 369.333719 100.533525 
L 370.560155 99.424363 
L 371.464892 98.858175 
L 372.35709 98.521553 
L 373.237095 98.415117 
L 374.105234 98.538902 
L 374.961823 98.892335 
L 375.807165 99.474226 
L 376.641553 100.282741 
L 377.737511 101.708881 
L 378.815126 103.525701 
L 379.875002 105.723681 
L 381.175773 108.989188 
L 382.450785 112.80405 
L 383.948201 118.059217 
L 385.411582 123.987079 
L 387.077856 131.654845 
L 388.930818 141.267383 
L 390.953581 152.924219 
L 393.555389 169.299283 
L 397.670911 196.892803 
L 401.162573 219.731579 
L 403.3894 232.855688 
L 405.188009 242.165314 
L 406.591573 248.403784 
L 407.965193 253.485172 
L 409.143532 256.967123 
L 410.136652 259.24035 
L 410.952708 260.642993 
L 411.758551 261.61172 
L 412.396041 262.085472 
L 413.027282 262.302965 
L 413.652393 262.275986 
L 414.271494 262.014692 
L 414.884699 261.530032 
L 415.643082 260.629489 
L 416.541506 259.154696 
L 417.574064 256.964229 
L 418.877762 253.572564 
L 420.575952 248.440244 
L 425.804742 231.967416 
L 426.953383 229.291852 
L 427.957474 227.457611 
L 428.823389 226.315491 
L 429.556444 225.70912 
L 430.161012 225.480895 
L 430.759955 225.500942 
L 431.353379 225.760349 
L 431.941383 226.248866 
L 432.639972 227.12104 
L 433.445527 228.503736 
L 434.353986 230.514316 
L 435.471826 233.567284 
L 436.896596 238.176135 
L 441.295398 253.027509 
L 442.399472 255.783979 
L 443.190708 257.251482 
L 443.875151 258.123188 
L 444.456082 258.560679 
L 445.031817 258.710862 
L 445.507695 258.616164 
L 446.074144 258.238969 
L 446.635654 257.575374 
L 447.284618 256.449693 
L 448.109503 254.500453 
L 449.103552 251.47417 
L 450.346907 246.882955 
L 454.765621 229.757733 
L 455.581678 227.731774 
L 456.227157 226.612068 
L 456.786691 226.045114 
L 457.183402 225.897306 
L 457.577684 225.968109 
L 457.969565 226.25517 
L 458.436697 226.881172 
L 458.977434 227.992572 
L 459.666061 230.008427 
L 460.422662 232.990816 
L 461.319001 237.487731 
L 462.422158 244.213758 
L 464.077786 255.89619 
L 466.723204 274.641641 
L 467.939345 281.587117 
L 468.869603 285.677505 
L 469.656407 288.165159 
L 470.304811 289.54037 
L 470.818873 290.201102 
L 471.265336 290.471363 
L 471.708723 290.472957 
L 472.149079 290.234152 
L 472.648682 289.706476 
L 473.329366 288.625267 
L 474.306782 286.578015 
L 476.570352 281.634627 
L 477.326816 280.584679 
L 477.902723 280.133111 
L 478.359769 280.030746 
L 478.813593 280.177912 
L 479.26424 280.567943 
L 479.82315 281.379041 
L 480.4875 282.793259 
L 481.308412 285.152655 
L 482.440384 289.201652 
L 485.109344 299.030692 
L 485.974966 301.275382 
L 486.679194 302.52839 
L 487.227164 303.099024 
L 487.721303 303.310472 
L 488.162808 303.273715 
L 488.649845 303.007768 
L 489.229468 302.421265 
L 490.04177 301.238405 
L 492.235633 297.843399 
L 492.829477 297.350106 
L 493.327718 297.201046 
L 493.777343 297.292213 
L 494.22385 297.609646 
L 494.755602 298.299688 
L 495.37048 299.500156 
L 496.152506 301.564638 
L 497.223132 305.0971 
L 499.558631 312.959829 
L 500.413055 314.998367 
L 501.096522 316.118506 
L 501.693614 316.699011 
L 502.245949 316.933673 
L 502.793585 316.922299 
L 503.45237 316.661491 
L 504.863313 315.752946 
L 505.687825 315.383637 
L 506.280906 315.340571 
L 506.868575 315.522097 
L 507.450928 315.937983 
L 508.17154 316.759434 
L 509.131747 318.234978 
L 511.283932 321.662477 
L 512.064377 322.451127 
L 512.73542 322.835823 
L 513.366498 322.955427 
L 514.122249 322.860226 
L 516.683939 322.320646 
L 517.33983 322.533717 
L 518.050601 323.005399 
L 518.935751 323.894429 
L 521.782004 326.992637 
L 522.589001 327.415923 
L 523.386009 327.580531 
L 524.479938 327.551195 
L 526.018899 327.530627 
L 526.962399 327.759455 
L 528.076647 328.274611 
L 529.43 328.992525 
L 529.43 328.992525 
" clip-path="url(#p8f56e7a253)" style="fill: none; stroke: #ff9500; stroke-width: 2; stroke-linecap: square"/>
   </g>
   <g id="line2d_106">
    <path d="M -1 331.99108 
L 25.671031 331.99108 
L 70.3 311.820223 
L 96.406273 312.270452 
L 129.296288 313.136413 
L 141.035243 313.289864 
L 150.960387 313.291763 
L 159.557939 313.168058 
L 173.925258 312.660749 
L 185.664212 311.927897 
L 195.589357 311.063059 
L 204.186908 310.104592 
L 211.770486 309.082473 
L 218.554227 308.01267 
L 227.552938 306.333418 
L 235.446811 304.58038 
L 242.477715 302.772506 
L 248.815877 300.90707 
L 254.585645 299.001732 
L 259.880627 297.05672 
L 264.773055 295.048291 
L 270.766774 292.325746 
L 274.922151 290.237484 
L 280.07578 287.351937 
L 284.847295 284.39284 
L 289.28947 281.338812 
L 293.444847 278.167973 
L 297.348223 274.886404 
L 301.028424 271.488035 
L 304.509596 267.968627 
L 307.812166 264.31971 
L 310.953569 260.539465 
L 313.948806 256.62349 
L 316.810877 252.57571 
L 320.218338 247.330389 
L 323.454496 241.890077 
L 326.535754 236.264616 
L 329.476265 230.471116 
L 332.836296 223.325265 
L 336.029644 216.009254 
L 339.56545 207.333469 
L 343.382033 197.34528 
L 347.855081 184.985336 
L 359.305309 152.926273 
L 362.135918 145.854919 
L 364.514563 140.534016 
L 366.485716 136.689637 
L 368.083466 134.023582 
L 369.642525 131.869908 
L 370.863149 130.529592 
L 372.061062 129.538345 
L 373.237095 128.900405 
L 374.105234 128.655315 
L 374.961823 128.61077 
L 375.807165 128.766664 
L 376.641553 129.122351 
L 377.465265 129.67662 
L 378.547408 130.721369 
L 379.611664 132.109933 
L 380.658614 133.834349 
L 381.943806 136.446719 
L 383.203846 139.54388 
L 384.684049 143.85838 
L 386.130986 148.768179 
L 387.778981 155.169629 
L 389.612158 163.246287 
L 391.613956 173.082657 
L 394.189739 186.939494 
L 398.463364 211.489291 
L 401.539101 228.632083 
L 403.753164 239.763574 
L 405.541779 247.604458 
L 406.937736 252.793555 
L 408.134854 256.483725 
L 409.310119 259.368885 
L 410.300693 261.203802 
L 411.114686 262.290304 
L 411.918516 262.984796 
L 412.554433 263.26719 
L 413.184129 263.316153 
L 413.807727 263.141083 
L 414.425344 262.750938 
L 415.189125 261.976532 
L 416.093861 260.658058 
L 417.133565 258.644472 
L 418.301597 255.828334 
L 419.732456 251.770934 
L 421.820833 245.097296 
L 425.027437 234.781511 
L 426.445404 231.023942 
L 427.582772 228.594474 
L 428.57717 226.987224 
L 429.313018 226.157357 
L 430.040551 225.674269 
L 430.640612 225.53847 
L 431.235131 225.637118 
L 431.824211 225.961172 
L 432.524066 226.632933 
L 433.331063 227.780671 
L 434.241127 229.526352 
L 435.249806 231.964983 
L 436.57059 235.808226 
L 438.818709 243.240442 
L 440.787219 249.417537 
L 442.000178 252.545907 
L 442.895133 254.299586 
L 443.582709 255.240399 
L 444.26302 255.798627 
L 444.840477 255.969383 
L 445.317766 255.893249 
L 445.791543 255.617829 
L 446.355511 255.023922 
L 447.007291 253.97029 
L 447.744192 252.321616 
L 448.653613 249.680342 
L 449.728231 245.834361 
L 451.307258 239.230871 
L 454.022221 227.772277 
L 455.093286 224.29976 
L 455.905226 222.363796 
L 456.547486 221.357739 
L 457.025011 220.959066 
L 457.42026 220.873776 
L 457.813099 221.012122 
L 458.281363 221.470181 
L 458.823401 222.401378 
L 459.437336 223.978076 
L 460.121088 226.386471 
L 460.947042 230.179598 
L 461.98316 236.131983 
L 463.291273 245.074147 
L 467.536512 275.204617 
L 468.538908 280.271898 
L 469.329739 283.241155 
L 470.046232 285.111153 
L 470.62658 286.055041 
L 471.074374 286.437122 
L 471.519074 286.524991 
L 471.960724 286.344934 
L 472.461785 285.851338 
L 473.082676 284.876676 
L 473.941988 283.036685 
L 477.036919 275.886893 
L 477.672978 275.128665 
L 478.188757 274.837271 
L 478.587081 274.841342 
L 479.039311 275.097039 
L 479.544301 275.691109 
L 480.100796 276.710441 
L 480.762301 278.394894 
L 481.633868 281.292321 
L 482.972502 286.670377 
L 484.903966 294.34021 
L 485.823052 297.072199 
L 486.528935 298.545811 
L 487.078179 299.257906 
L 487.573459 299.560992 
L 488.015976 299.576448 
L 488.455472 299.371495 
L 488.988592 298.857349 
L 489.660786 297.870999 
L 490.843951 295.652584 
L 492.051804 293.562518 
L 492.692922 292.837151 
L 493.192216 292.56763 
L 493.642785 292.571913 
L 494.090223 292.825865 
L 494.578839 293.407258 
L 495.151554 294.490528 
L 495.849512 296.333508 
L 496.754248 299.411324 
L 500.129505 311.615936 
L 500.856126 313.165141 
L 501.455441 313.981084 
L 502.009814 314.372494 
L 502.520349 314.462667 
L 503.065666 314.320667 
L 503.798429 313.861312 
L 505.576011 312.632416 
L 506.170119 312.522616 
L 506.72216 312.651789 
L 507.269508 313.016781 
L 507.884262 313.71048 
L 508.706755 315.017162 
L 511.82785 320.42852 
L 512.50135 320.981585 
L 513.101535 321.205983 
L 513.729051 321.203404 
L 514.545522 320.95827 
L 516.148043 320.428774 
L 516.809387 320.47032 
L 517.432985 320.741238 
L 518.112038 321.294795 
L 518.966057 322.315709 
L 521.752995 325.904782 
L 522.503019 326.390839 
L 523.21605 326.601066 
L 524.08938 326.616943 
L 526.12743 326.564375 
L 526.989155 326.829142 
L 528.024023 327.400839 
L 529.43 328.298827 
L 529.43 328.298827 
" clip-path="url(#p8f56e7a253)" style="fill: none; stroke: #ff2c00; stroke-width: 2; stroke-linecap: square"/>
   </g>
   <g id="line2d_107">
    <path d="M -1 331.99108 
L 25.671031 331.99108 
L 70.3 321.798721 
L 141.035243 321.593575 
L 159.557939 321.136545 
L 173.925258 320.488815 
L 185.664212 319.723699 
L 195.589357 318.885902 
L 208.090284 317.531133 
L 218.554227 316.100882 
L 227.552938 314.608964 
L 235.446811 313.065157 
L 242.477715 311.481717 
L 248.815877 309.8553 
L 256.399455 307.640397 
L 261.553084 305.936303 
L 267.839634 303.599241 
L 273.566606 301.223477 
L 278.825527 298.760981 
L 283.687156 296.230125 
L 288.207327 293.628859 
L 292.430873 290.933891 
L 296.394339 288.145596 
L 300.127906 285.260862 
L 303.656789 282.274873 
L 307.002268 279.179817 
L 310.18247 275.972541 
L 313.212958 272.648193 
L 316.810877 268.328622 
L 320.218338 263.825759 
L 323.454496 259.145723 
L 326.535754 254.294494 
L 329.476265 249.283658 
L 332.836296 243.080309 
L 336.029644 236.70041 
L 339.56545 229.091634 
L 343.382033 220.267909 
L 347.421504 210.334852 
L 353.240971 195.338231 
L 359.305309 179.809463 
L 362.481152 172.261393 
L 364.847308 167.146509 
L 366.808454 163.358528 
L 368.711627 160.164398 
L 370.255729 157.984033 
L 371.763667 156.262869 
L 372.945094 155.225602 
L 374.105234 154.494954 
L 375.244839 154.073848 
L 376.086498 153.962137 
L 376.917296 154.025558 
L 377.737511 154.263757 
L 378.815126 154.851584 
L 379.875002 155.744446 
L 380.917713 156.936476 
L 381.943806 158.419994 
L 383.203846 160.669533 
L 384.4397 163.336434 
L 385.892077 167.048611 
L 387.312414 171.273402 
L 388.930818 176.780081 
L 390.731942 183.713561 
L 392.914727 193.082425 
L 395.646027 205.908991 
L 402.655649 239.555874 
L 404.653682 247.75225 
L 406.24354 253.359951 
L 407.624526 257.396451 
L 408.809059 260.161328 
L 409.807311 261.956559 
L 410.627526 263.049306 
L 411.437423 263.780661 
L 412.078085 264.110934 
L 412.712435 264.220779 
L 413.340596 264.117228 
L 413.962688 263.807916 
L 414.731944 263.14454 
L 415.492118 262.191541 
L 416.392636 260.697477 
L 417.427565 258.529611 
L 418.734203 255.204556 
L 420.436135 250.161721 
L 423.176378 241.168767 
L 425.287583 234.568266 
L 426.699895 230.86521 
L 427.832815 228.463514 
L 428.823389 226.870171 
L 429.556444 226.04527 
L 430.281247 225.559329 
L 430.879078 225.410035 
L 431.47141 225.485291 
L 432.058342 225.776474 
L 432.75567 226.396966 
L 433.559787 227.46982 
L 434.466647 229.11223 
L 435.471826 231.41346 
L 436.788111 235.037508 
L 441.799598 249.619857 
L 442.697326 251.357598 
L 443.484932 252.40844 
L 444.069378 252.87432 
L 444.648566 253.059747 
L 445.127274 252.997776 
L 445.60245 252.737448 
L 446.16807 252.161706 
L 446.82174 251.125875 
L 447.560756 249.482092 
L 448.472754 246.818059 
L 449.550369 242.894738 
L 450.959694 236.848738 
L 454.353681 221.913063 
L 455.337945 218.720047 
L 456.146825 216.81381 
L 456.707054 215.956238 
L 457.183402 215.569908 
L 457.577684 215.502031 
L 457.969565 215.663599 
L 458.436697 216.157572 
L 458.977434 217.142375 
L 459.58991 218.796751 
L 460.272051 221.314237 
L 461.096083 225.259719 
L 462.129826 231.421986 
L 463.506731 241.177494 
L 467.401672 269.74549 
L 468.406154 275.17368 
L 469.198607 278.403894 
L 469.916552 280.470255 
L 470.498065 281.541886 
L 471.010593 282.041099 
L 471.39233 282.145211 
L 471.771816 282.034223 
L 472.211742 281.659762 
L 472.772979 280.843431 
L 473.513766 279.296105 
L 474.609206 276.389366 
L 476.45318 271.451479 
L 477.211014 270.026137 
L 477.787953 269.326388 
L 478.245811 269.05805 
L 478.643783 269.059394 
L 479.039311 269.281642 
L 479.488387 269.795964 
L 480.045362 270.810301 
L 480.707435 272.535067 
L 481.525565 275.355109 
L 482.706993 280.332105 
L 485.006737 290.143083 
L 485.87373 292.843359 
L 486.579061 294.37393 
L 487.127879 295.086599 
L 487.573459 295.347396 
L 487.966957 295.354381 
L 488.406787 295.131207 
L 488.891989 294.626701 
L 489.517334 293.639103 
L 490.51485 291.573995 
L 492.005765 288.531179 
L 492.692922 287.609608 
L 493.192216 287.278978 
L 493.59787 287.246323 
L 494.000983 287.438678 
L 494.445947 287.928909 
L 494.975876 288.9023 
L 495.632212 290.645549 
L 496.45408 293.538403 
L 497.730777 299.0102 
L 499.43564 306.144317 
L 500.291687 308.830096 
L 500.976436 310.34241 
L 501.53493 311.115213 
L 502.04923 311.47711 
L 502.520349 311.549429 
L 503.026868 311.393431 
L 503.683282 310.930072 
L 505.687825 309.326257 
L 506.243998 309.234866 
L 506.758795 309.384445 
L 507.269508 309.771859 
L 507.884262 310.556045 
L 508.671212 311.972723 
L 510.077844 315.091661 
L 511.249784 317.426325 
L 511.996887 318.455336 
L 512.635209 318.977295 
L 513.201024 319.163255 
L 513.794751 319.121411 
L 514.577966 318.820708 
L 516.084702 318.199726 
L 516.715324 318.205176 
L 517.277651 318.435314 
L 517.896752 318.943129 
L 518.6319 319.867834 
L 519.778985 321.737454 
L 521.199321 323.969919 
L 521.984704 324.821528 
L 522.674868 325.266904 
L 523.357713 325.447782 
L 524.229137 325.426253 
L 525.937381 325.332097 
L 526.721103 325.552877 
L 527.57497 326.034459 
L 529.43 327.443742 
L 529.43 327.443742 
" clip-path="url(#p8f56e7a253)" style="fill: none; stroke: #845b97; stroke-width: 2; stroke-linecap: square"/>
   </g>
   <g id="patch_3">
    <path d="M 70.3 347.62875 
L 70.3 3.6 
" style="fill: none; stroke: #000000; stroke-linejoin: miter; stroke-linecap: square"/>
   </g>
   <g id="patch_4">
    <path d="M 529.43 347.62875 
L 529.43 3.6 
" style="fill: none; stroke: #000000; stroke-linejoin: miter; stroke-linecap: square"/>
   </g>
   <g id="patch_5">
    <path d="M 70.3 347.62875 
L 529.43 347.62875 
" style="fill: none; stroke: #000000; stroke-linejoin: miter; stroke-linecap: square"/>
   </g>
   <g id="patch_6">
    <path d="M 70.3 3.6 
L 529.43 3.6 
" style="fill: none; stroke: #000000; stroke-linejoin: miter; stroke-linecap: square"/>
   </g>
   <g id="legend_1">
    <g id="line2d_108">
     <path d="M 406.71 23.6 
L 422.71 23.6 
L 438.71 23.6 
" style="fill: none; stroke: #0c5da5; stroke-width: 2; stroke-linecap: square"/>
    </g>
    <g id="text_12">
     <!-- $n_{s}$ = 0.67 -->
     <g transform="translate(451.51 29.2) scale(0.16 -0.16)">
      <defs>
       <path id="DejaVuSans-Oblique-6e" d="M 3566 2113 
L 3156 0 
L 2578 0 
L 2988 2091 
Q 3016 2238 3031 2350 
Q 3047 2463 3047 2528 
Q 3047 2791 2881 2937 
Q 2716 3084 2419 3084 
Q 1956 3084 1622 2776 
Q 1288 2469 1184 1941 
L 800 0 
L 225 0 
L 903 3500 
L 1478 3500 
L 1363 2950 
Q 1603 3253 1940 3418 
Q 2278 3584 2650 3584 
Q 3113 3584 3367 3334 
Q 3622 3084 3622 2631 
Q 3622 2519 3608 2391 
Q 3594 2263 3566 2113 
z
" transform="scale(0.015625)"/>
       <path id="DejaVuSans-Oblique-73" d="M 3200 3397 
L 3091 2853 
Q 2863 2978 2609 3040 
Q 2356 3103 2088 3103 
Q 1634 3103 1373 2948 
Q 1113 2794 1113 2528 
Q 1113 2219 1719 2053 
Q 1766 2041 1788 2034 
L 1972 1978 
Q 2547 1819 2739 1644 
Q 2931 1469 2931 1166 
Q 2931 609 2489 259 
Q 2047 -91 1331 -91 
Q 1053 -91 747 -37 
Q 441 16 72 128 
L 184 722 
Q 500 559 806 475 
Q 1113 391 1394 391 
Q 1816 391 2080 572 
Q 2344 753 2344 1031 
Q 2344 1331 1650 1516 
L 1591 1531 
L 1394 1581 
Q 956 1697 753 1886 
Q 550 2075 550 2369 
Q 550 2928 970 3256 
Q 1391 3584 2113 3584 
Q 2397 3584 2667 3537 
Q 2938 3491 3200 3397 
z
" transform="scale(0.015625)"/>
       <path id="STIXGeneral-Regular-3d" d="M 4077 2048 
L 307 2048 
L 307 2470 
L 4077 2470 
L 4077 2048 
z
M 4077 768 
L 307 768 
L 307 1190 
L 4077 1190 
L 4077 768 
z
" transform="scale(0.015625)"/>
       <path id="STIXGeneral-Regular-2e" d="M 1158 275 
Q 1158 134 1052 32 
Q 947 -70 800 -70 
Q 653 -70 550 32 
Q 448 134 448 281 
Q 448 429 553 534 
Q 659 640 806 640 
Q 947 640 1052 531 
Q 1158 422 1158 275 
z
" transform="scale(0.015625)"/>
       <path id="STIXGeneral-Regular-37" d="M 2874 4134 
L 1517 -51 
L 1101 -51 
L 2368 3763 
L 992 3763 
Q 717 3763 582 3667 
Q 448 3571 243 3238 
L 128 3296 
L 512 4237 
L 2874 4237 
L 2874 4134 
z
" transform="scale(0.015625)"/>
      </defs>
      <use xlink:href="#DejaVuSans-Oblique-6e" transform="translate(0 0.59375)"/>
      <use xlink:href="#DejaVuSans-Oblique-73" transform="translate(63.378906 -15.8125) scale(0.7)"/>
      <use xlink:href="#STIXGeneral-Regular-20" transform="translate(102.583008 0.59375)"/>
      <use xlink:href="#STIXGeneral-Regular-3d" transform="translate(127.582993 0.59375)"/>
      <use xlink:href="#STIXGeneral-Regular-20" transform="translate(196.082977 0.59375)"/>
      <use xlink:href="#STIXGeneral-Regular-30" transform="translate(221.082962 0.59375)"/>
      <use xlink:href="#STIXGeneral-Regular-2e" transform="translate(271.082947 0.59375)"/>
      <use xlink:href="#STIXGeneral-Regular-36" transform="translate(296.082932 0.59375)"/>
      <use xlink:href="#STIXGeneral-Regular-37" transform="translate(346.082916 0.59375)"/>
     </g>
    </g>
    <g id="line2d_109">
     <path d="M 406.71 46.2725 
L 422.71 46.2725 
L 438.71 46.2725 
" style="fill: none; stroke: #00b945; stroke-width: 2; stroke-linecap: square"/>
    </g>
    <g id="text_13">
     <!-- $n_{s}$ = 0.82 -->
     <g transform="translate(451.51 51.8725) scale(0.16 -0.16)">
      <use xlink:href="#DejaVuSans-Oblique-6e" transform="translate(0 0.40625)"/>
      <use xlink:href="#DejaVuSans-Oblique-73" transform="translate(63.378906 -16) scale(0.7)"/>
      <use xlink:href="#STIXGeneral-Regular-20" transform="translate(102.583008 0.40625)"/>
      <use xlink:href="#STIXGeneral-Regular-3d" transform="translate(127.582993 0.40625)"/>
      <use xlink:href="#STIXGeneral-Regular-20" transform="translate(196.082977 0.40625)"/>
      <use xlink:href="#STIXGeneral-Regular-30" transform="translate(221.082962 0.40625)"/>
      <use xlink:href="#STIXGeneral-Regular-2e" transform="translate(271.082947 0.40625)"/>
      <use xlink:href="#STIXGeneral-Regular-38" transform="translate(296.082932 0.40625)"/>
      <use xlink:href="#STIXGeneral-Regular-32" transform="translate(346.082916 0.40625)"/>
     </g>
    </g>
    <g id="line2d_110">
     <path d="M 406.71 68.945 
L 422.71 68.945 
L 438.71 68.945 
" style="fill: none; stroke: #ff9500; stroke-width: 2; stroke-linecap: square"/>
    </g>
    <g id="text_14">
     <!-- $n_{s}$ = 0.97 -->
     <g transform="translate(451.51 74.545) scale(0.16 -0.16)">
      <defs>
       <path id="STIXGeneral-Regular-39" d="M 378 -141 
L 358 -13 
Q 1094 115 1603 608 
Q 2112 1101 2304 1882 
Q 1933 1517 1344 1517 
Q 826 1517 509 1875 
Q 192 2234 192 2816 
Q 192 3462 573 3894 
Q 954 4326 1523 4326 
Q 2131 4326 2528 3840 
Q 2938 3328 2938 2522 
Q 2938 1958 2742 1462 
Q 2547 966 2170 621 
Q 1773 262 1395 105 
Q 1018 -51 378 -141 
z
M 2317 2272 
L 2317 2522 
Q 2317 4147 1472 4147 
Q 1171 4147 1005 3930 
Q 909 3802 845 3546 
Q 781 3290 781 3034 
Q 781 2464 995 2128 
Q 1210 1792 1568 1792 
Q 1824 1792 2070 1917 
Q 2317 2042 2317 2272 
z
" transform="scale(0.015625)"/>
      </defs>
      <use xlink:href="#DejaVuSans-Oblique-6e" transform="translate(0 0.40625)"/>
      <use xlink:href="#DejaVuSans-Oblique-73" transform="translate(63.378906 -16) scale(0.7)"/>
      <use xlink:href="#STIXGeneral-Regular-20" transform="translate(102.583008 0.40625)"/>
      <use xlink:href="#STIXGeneral-Regular-3d" transform="translate(127.582993 0.40625)"/>
      <use xlink:href="#STIXGeneral-Regular-20" transform="translate(196.082977 0.40625)"/>
      <use xlink:href="#STIXGeneral-Regular-30" transform="translate(221.082962 0.40625)"/>
      <use xlink:href="#STIXGeneral-Regular-2e" transform="translate(271.082947 0.40625)"/>
      <use xlink:href="#STIXGeneral-Regular-39" transform="translate(296.082932 0.40625)"/>
      <use xlink:href="#STIXGeneral-Regular-37" transform="translate(346.082916 0.40625)"/>
     </g>
    </g>
    <g id="line2d_111">
     <path d="M 406.71 91.6175 
L 422.71 91.6175 
L 438.71 91.6175 
" style="fill: none; stroke: #ff2c00; stroke-width: 2; stroke-linecap: square"/>
    </g>
    <g id="text_15">
     <!-- $n_{s}$ = 1.12 -->
     <g transform="translate(451.51 97.2175) scale(0.16 -0.16)">
      <use xlink:href="#DejaVuSans-Oblique-6e" transform="translate(0 0.40625)"/>
      <use xlink:href="#DejaVuSans-Oblique-73" transform="translate(63.378906 -16) scale(0.7)"/>
      <use xlink:href="#STIXGeneral-Regular-20" transform="translate(102.583008 0.40625)"/>
      <use xlink:href="#STIXGeneral-Regular-3d" transform="translate(127.582993 0.40625)"/>
      <use xlink:href="#STIXGeneral-Regular-20" transform="translate(196.082977 0.40625)"/>
      <use xlink:href="#STIXGeneral-Regular-31" transform="translate(221.082962 0.40625)"/>
      <use xlink:href="#STIXGeneral-Regular-2e" transform="translate(271.082947 0.40625)"/>
      <use xlink:href="#STIXGeneral-Regular-31" transform="translate(296.082932 0.40625)"/>
      <use xlink:href="#STIXGeneral-Regular-32" transform="translate(346.082916 0.40625)"/>
     </g>
    </g>
    <g id="line2d_112">
     <path d="M 406.71 114.29 
L 422.71 114.29 
L 438.71 114.29 
" style="fill: none; stroke: #845b97; stroke-width: 2; stroke-linecap: square"/>
    </g>
    <g id="text_16">
     <!-- $n_{s}$ = 1.27 -->
     <g transform="translate(451.51 119.89) scale(0.16 -0.16)">
      <use xlink:href="#DejaVuSans-Oblique-6e" transform="translate(0 0.40625)"/>
      <use xlink:href="#DejaVuSans-Oblique-73" transform="translate(63.378906 -16) scale(0.7)"/>
      <use xlink:href="#STIXGeneral-Regular-20" transform="translate(102.583008 0.40625)"/>
      <use xlink:href="#STIXGeneral-Regular-3d" transform="translate(127.582993 0.40625)"/>
      <use xlink:href="#STIXGeneral-Regular-20" transform="translate(196.082977 0.40625)"/>
      <use xlink:href="#STIXGeneral-Regular-31" transform="translate(221.082962 0.40625)"/>
      <use xlink:href="#STIXGeneral-Regular-2e" transform="translate(271.082947 0.40625)"/>
      <use xlink:href="#STIXGeneral-Regular-32" transform="translate(296.082932 0.40625)"/>
      <use xlink:href="#STIXGeneral-Regular-37" transform="translate(346.082916 0.40625)"/>
     </g>
    </g>
   </g>
  </g>
 </g>
 <defs>
  <clipPath id="p8f56e7a253">
   <rect x="70.3" y="3.6" width="459.13" height="344.02875"/>
  </clipPath>
 </defs>
</svg>
